<svg xmlns="http://www.w3.org/2000/svg" width="980" height="520" viewBox="-70 -50 1120 620" preserveAspectRatio="xMidYMid meet" style="max-width: 100%; height: auto; display: block; font-family: ui-serif, Georgia, &quot;Times New Roman&quot;, Times, serif; font-size: 12px;"><rect x="-70" y="-50" width="1120" height="620" fill="#0B0B0F"></rect><style>
    text {
      fill: #EAEAEA;
      stroke: rgba(0,0,0,0.70);
      stroke-width: 3px;
      paint-order: stroke;
      stroke-linejoin: round;
    }
  </style><text x="940" y="32" text-anchor="end" font-size="18" font-weight="800">Wordset prevalence by group</text><text x="940" y="52" text-anchor="end" font-size="12" opacity="0.9">Bay-area wordset vs UK/London wordset (rates per 10k tokens)</text><g><line x1="80" x2="940" y1="450" y2="450" stroke="#EAEAEA" opacity="0.1"></line><line x1="80" x2="940" y1="388.18181818181813" y2="388.18181818181813" stroke="#EAEAEA" opacity="0.1"></line><line x1="80" x2="940" y1="326.3636363636364" y2="326.3636363636364" stroke="#EAEAEA" opacity="0.1"></line><line x1="80" x2="940" y1="264.54545454545456" y2="264.54545454545456" stroke="#EAEAEA" opacity="0.1"></line><line x1="80" x2="940" y1="202.72727272727272" y2="202.72727272727272" stroke="#EAEAEA" opacity="0.1"></line><line x1="80" x2="940" y1="140.90909090909093" y2="140.90909090909093" stroke="#EAEAEA" opacity="0.1"></line></g><g><g class="group" transform="translate(80,0)"><rect class="bar" x="25.294117647058826" width="75.88235294117648" y="287.57928" height="162.42072000000002" rx="6" fill="#2F855A" opacity="0.95"></rect><rect class="bar" x="126.47058823529413" width="75.88235294117648" y="288.4341018181818" height="161.56589818181823" rx="6" fill="#7B2CBF" opacity="0.95"></rect><text class="val" x="63.235294117647065" y="279.57928" text-anchor="middle" font-size="11" font-weight="800" opacity="0.95">262.7</text><text class="val" x="164.41176470588238" y="280.4341018181818" text-anchor="middle" font-size="11" font-weight="800" opacity="0.95">261.4</text></g><g class="group" transform="translate(396.1764705882353,0)"><rect class="bar" x="25.294117647058826" width="75.88235294117648" y="221.09147636363636" height="228.90852363636364" rx="6" fill="#2F855A" opacity="0.95"></rect><rect class="bar" x="126.47058823529413" width="75.88235294117648" y="290.6137490909091" height="159.3862509090909" rx="6" fill="#7B2CBF" opacity="0.95"></rect><text class="val" x="63.235294117647065" y="213.09147636363636" text-anchor="middle" font-size="11" font-weight="800" opacity="0.95">370.3</text><text class="val" x="164.41176470588238" y="282.6137490909091" text-anchor="middle" font-size="11" font-weight="800" opacity="0.95">257.8</text></g><g class="group" transform="translate(712.3529411764706,0)"><rect class="bar" x="25.294117647058826" width="75.88235294117648" y="339.75153818181815" height="110.24846181818185" rx="6" fill="#2F855A" opacity="0.95"></rect><rect class="bar" x="126.47058823529413" width="75.88235294117648" y="165.4341563636364" height="284.56584363636364" rx="6" fill="#7B2CBF" opacity="0.95"></rect><text class="val" x="63.235294117647065" y="331.75153818181815" text-anchor="middle" font-size="11" font-weight="800" opacity="0.95">178.3</text><text class="val" x="164.41176470588238" y="157.4341563636364" text-anchor="middle" font-size="11" font-weight="800" opacity="0.95">460.3</text></g></g><g transform="translate(0, 450)" fill="none" font-size="10" font-family="sans-serif" text-anchor="middle"><path class="domain" stroke="#EAEAEA" d="M80.5,6V0.5H940.5V6" opacity="0.7"></path><g class="tick" opacity="1" transform="translate(193.8235294117647,0)"><line stroke="#EAEAEA" y2="6" opacity="0.7"></line><text fill="#EAEAEA" y="9" dy="0.71em" font-size="12" font-weight="800">All US</text></g><g class="tick" opacity="1" transform="translate(510,0)"><line stroke="#EAEAEA" y2="6" opacity="0.7"></line><text fill="#EAEAEA" y="9" dy="0.71em" font-size="12" font-weight="800">SF Bay Area</text></g><g class="tick" opacity="1" transform="translate(826.1764705882354,0)"><line stroke="#EAEAEA" y2="6" opacity="0.7"></line><text fill="#EAEAEA" y="9" dy="0.71em" font-size="12" font-weight="800">UK / London</text></g></g><g transform="translate(80,0)" fill="none" font-size="10" font-family="sans-serif" text-anchor="end"><path class="domain" stroke="#EAEAEA" d="M-6,450.5H0.5V110.5H-6" opacity="0.7"></path><g class="tick" opacity="1" transform="translate(0,450.5)"><line stroke="#EAEAEA" x2="-6" opacity="0.7"></line><text fill="#EAEAEA" x="-9" dy="0.32em" font-size="11">0</text></g><g class="tick" opacity="1" transform="translate(0,388.68181818181813)"><line stroke="#EAEAEA" x2="-6" opacity="0.7"></line><text fill="#EAEAEA" x="-9" dy="0.32em" font-size="11">100</text></g><g class="tick" opacity="1" transform="translate(0,326.8636363636364)"><line stroke="#EAEAEA" x2="-6" opacity="0.7"></line><text fill="#EAEAEA" x="-9" dy="0.32em" font-size="11">200</text></g><g class="tick" opacity="1" transform="translate(0,265.04545454545456)"><line stroke="#EAEAEA" x2="-6" opacity="0.7"></line><text fill="#EAEAEA" x="-9" dy="0.32em" font-size="11">300</text></g><g class="tick" opacity="1" transform="translate(0,203.22727272727272)"><line stroke="#EAEAEA" x2="-6" opacity="0.7"></line><text fill="#EAEAEA" x="-9" dy="0.32em" font-size="11">400</text></g><g class="tick" opacity="1" transform="translate(0,141.40909090909093)"><line stroke="#EAEAEA" x2="-6" opacity="0.7"></line><text fill="#EAEAEA" x="-9" dy="0.32em" font-size="11">500</text></g></g><text x="80" y="92" font-size="12" font-weight="800" opacity="0.9">Rate per 10,000 tokens</text><g transform="translate(80, 60)"><g class="item" transform="translate(0,0)"><rect x="0" y="-10" width="14" height="14" rx="3" fill="#2F855A" opacity="0.95"></rect><text x="20" y="2" font-size="12" font-weight="800">Bay wordset / 10k</text></g><g class="item" transform="translate(190,0)"><rect x="0" y="-10" width="14" height="14" rx="3" fill="#7B2CBF" opacity="0.95"></rect><text x="20" y="2" font-size="12" font-weight="800">UK wordset / 10k</text></g></g></svg>