<?xml version="1.0" encoding="UTF-8"?>
<svg xmlns="http://www.w3.org/2000/svg" width="980" height="1186" viewBox="-140 -60 1260 1306" preserveAspectRatio="xMidYMid meet" style="max-width: 100%; height: auto; display: block; font-family: ui-serif, Georgia, &quot;Times New Roman&quot;, Times, serif; font-size: 12px;"><rect x="-140" y="-60" width="1260" height="1306" fill="#000000"></rect><text x="70" y="32" fill="#FFFFFF" font-size="18" font-weight="800">Most distinctive words: SF Bay Area vs UK/London</text><text x="70" y="54" fill="#FFFFFF" font-size="12.5" opacity="0.9">Top 20 per side. Bars are z-scores (Bay positive, UK negative).</text><text x="70" y="78" text-anchor="start" fill="#B84CF0" font-size="12.5" font-weight="800">UK/London distinctive (−z)</text><text x="910" y="78" text-anchor="end" fill="#2F6FED" font-size="12.5" font-weight="800">Bay Area distinctive (+z)</text><line x1="490" x2="490" y1="86" y2="1134" stroke="rgba(255,255,255,0.55)" stroke-width="1.4" opacity="0.9"></line><g transform="translate(0, 1144)" fill="none" font-size="10" font-family="sans-serif" text-anchor="middle"><path class="domain" stroke="rgba(255,255,255,0.55)" d="M70.5,6V0.5H910.5V6" opacity="0.75"></path><g class="tick" opacity="1" transform="translate(130.5,0)"><line stroke="rgba(255,255,255,0.55)" y2="6" opacity="0.75"></line><text fill="rgba(255,255,255,0.75)" y="9" dy="0.71em" font-size="11">−6.0</text></g><g class="tick" opacity="1" transform="translate(250.5,0)"><line stroke="rgba(255,255,255,0.55)" y2="6" opacity="0.75"></line><text fill="rgba(255,255,255,0.75)" y="9" dy="0.71em" font-size="11">−4.0</text></g><g class="tick" opacity="1" transform="translate(370.5,0)"><line stroke="rgba(255,255,255,0.55)" y2="6" opacity="0.75"></line><text fill="rgba(255,255,255,0.75)" y="9" dy="0.71em" font-size="11">−2.0</text></g><g class="tick" opacity="1" transform="translate(490.5,0)"><line stroke="rgba(255,255,255,0.55)" y2="6" opacity="0.75"></line><text fill="rgba(255,255,255,0.75)" y="9" dy="0.71em" font-size="11">0.0</text></g><g class="tick" opacity="1" transform="translate(610.5,0)"><line stroke="rgba(255,255,255,0.55)" y2="6" opacity="0.75"></line><text fill="rgba(255,255,255,0.75)" y="9" dy="0.71em" font-size="11">2.0</text></g><g class="tick" opacity="1" transform="translate(730.5,0)"><line stroke="rgba(255,255,255,0.55)" y2="6" opacity="0.75"></line><text fill="rgba(255,255,255,0.75)" y="9" dy="0.71em" font-size="11">4.0</text></g><g class="tick" opacity="1" transform="translate(850.5,0)"><line stroke="rgba(255,255,255,0.55)" y2="6" opacity="0.75"></line><text fill="rgba(255,255,255,0.75)" y="9" dy="0.71em" font-size="11">6.0</text></g></g><g><rect class="bar" x="490" y="98" width="192.92399999999998" height="14" rx="3" ry="3" fill="#2F6FED" opacity="0.92"></rect><rect class="bar" x="131.50000000000003" y="124" width="358.5" height="14" rx="3" ry="3" fill="#B84CF0" opacity="0.92"></rect><rect class="bar" x="490" y="150" width="176.60400000000004" height="14" rx="3" ry="3" fill="#2F6FED" opacity="0.92"></rect><rect class="bar" x="280.76200000000006" y="176" width="209.23799999999994" height="14" rx="3" ry="3" fill="#B84CF0" opacity="0.92"></rect><rect class="bar" x="490" y="202" width="176.418" height="14" rx="3" ry="3" fill="#2F6FED" opacity="0.92"></rect><rect class="bar" x="282.40599999999995" y="228" width="207.59400000000005" height="14" rx="3" ry="3" fill="#B84CF0" opacity="0.92"></rect><rect class="bar" x="490" y="254" width="172.44000000000005" height="14" rx="3" ry="3" fill="#2F6FED" opacity="0.92"></rect><rect class="bar" x="294.964" y="280" width="195.036" height="14" rx="3" ry="3" fill="#B84CF0" opacity="0.92"></rect><rect class="bar" x="490" y="306" width="168.88800000000003" height="14" rx="3" ry="3" fill="#2F6FED" opacity="0.92"></rect><rect class="bar" x="304.67199999999997" y="332" width="185.32800000000003" height="14" rx="3" ry="3" fill="#B84CF0" opacity="0.92"></rect><rect class="bar" x="490" y="358" width="165.726" height="14" rx="3" ry="3" fill="#2F6FED" opacity="0.92"></rect><rect class="bar" x="307.786" y="384" width="182.214" height="14" rx="3" ry="3" fill="#B84CF0" opacity="0.92"></rect><rect class="bar" x="490" y="410" width="165.312" height="14" rx="3" ry="3" fill="#2F6FED" opacity="0.92"></rect><rect class="bar" x="313.426" y="436" width="176.574" height="14" rx="3" ry="3" fill="#B84CF0" opacity="0.92"></rect><rect class="bar" x="490" y="462" width="159.53999999999996" height="14" rx="3" ry="3" fill="#2F6FED" opacity="0.92"></rect><rect class="bar" x="315.574" y="488" width="174.426" height="14" rx="3" ry="3" fill="#B84CF0" opacity="0.92"></rect><rect class="bar" x="490" y="514" width="154.40999999999997" height="14" rx="3" ry="3" fill="#2F6FED" opacity="0.92"></rect><rect class="bar" x="319.876" y="540" width="170.12400000000002" height="14" rx="3" ry="3" fill="#B84CF0" opacity="0.92"></rect><rect class="bar" x="490" y="566" width="143.50200000000007" height="14" rx="3" ry="3" fill="#2F6FED" opacity="0.92"></rect><rect class="bar" x="325.04200000000003" y="592" width="164.95799999999997" height="14" rx="3" ry="3" fill="#B84CF0" opacity="0.92"></rect><rect class="bar" x="490" y="618" width="142.31999999999994" height="14" rx="3" ry="3" fill="#2F6FED" opacity="0.92"></rect><rect class="bar" x="330.94599999999997" y="644" width="159.05400000000003" height="14" rx="3" ry="3" fill="#B84CF0" opacity="0.92"></rect><rect class="bar" x="490" y="670" width="138.49199999999996" height="14" rx="3" ry="3" fill="#2F6FED" opacity="0.92"></rect><rect class="bar" x="333.916" y="696" width="156.084" height="14" rx="3" ry="3" fill="#B84CF0" opacity="0.92"></rect><rect class="bar" x="490" y="722" width="138.2639999999999" height="14" rx="3" ry="3" fill="#2F6FED" opacity="0.92"></rect><rect class="bar" x="337.864" y="748" width="152.13600000000002" height="14" rx="3" ry="3" fill="#B84CF0" opacity="0.92"></rect><rect class="bar" x="490" y="774" width="136.31400000000008" height="14" rx="3" ry="3" fill="#2F6FED" opacity="0.92"></rect><rect class="bar" x="340.588" y="800" width="149.41199999999998" height="14" rx="3" ry="3" fill="#B84CF0" opacity="0.92"></rect><rect class="bar" x="490" y="826" width="135.66599999999994" height="14" rx="3" ry="3" fill="#2F6FED" opacity="0.92"></rect><rect class="bar" x="341.218" y="852" width="148.78199999999998" height="14" rx="3" ry="3" fill="#B84CF0" opacity="0.92"></rect><rect class="bar" x="490" y="878" width="134.28599999999994" height="14" rx="3" ry="3" fill="#2F6FED" opacity="0.92"></rect><rect class="bar" x="341.806" y="904" width="148.19400000000002" height="14" rx="3" ry="3" fill="#B84CF0" opacity="0.92"></rect><rect class="bar" x="490" y="930" width="134.082" height="14" rx="3" ry="3" fill="#2F6FED" opacity="0.92"></rect><rect class="bar" x="345.034" y="956" width="144.966" height="14" rx="3" ry="3" fill="#B84CF0" opacity="0.92"></rect><rect class="bar" x="490" y="982" width="132.462" height="14" rx="3" ry="3" fill="#2F6FED" opacity="0.92"></rect><rect class="bar" x="347.2" y="1008" width="142.8" height="14" rx="3" ry="3" fill="#B84CF0" opacity="0.92"></rect><rect class="bar" x="490" y="1034" width="131.61" height="14" rx="3" ry="3" fill="#2F6FED" opacity="0.92"></rect><rect class="bar" x="347.2" y="1060" width="142.8" height="14" rx="3" ry="3" fill="#B84CF0" opacity="0.92"></rect><rect class="bar" x="490" y="1086" width="128.40600000000006" height="14" rx="3" ry="3" fill="#2F6FED" opacity="0.92"></rect><rect class="bar" x="348.82599999999996" y="1112" width="141.17400000000004" height="14" rx="3" ry="3" fill="#B84CF0" opacity="0.92"></rect></g><g><text class="word" x="690.924" y="109" text-anchor="start" fill="#FFFFFF" font-size="12.2" font-weight="650">favorite</text><text class="word" x="123.50000000000003" y="135" text-anchor="end" fill="#FFFFFF" font-size="12.2" font-weight="650">london</text><text class="word" x="674.604" y="161" text-anchor="start" fill="#FFFFFF" font-size="12.2" font-weight="650">research</text><text class="word" x="272.76200000000006" y="187" text-anchor="end" fill="#FFFFFF" font-size="12.2" font-weight="650">ideally</text><text class="word" x="674.418" y="213" text-anchor="start" fill="#FFFFFF" font-size="12.2" font-weight="650">working</text><text class="word" x="274.40599999999995" y="239" text-anchor="end" fill="#FFFFFF" font-size="12.2" font-weight="650">generally</text><text class="word" x="670.44" y="265" text-anchor="start" fill="#FFFFFF" font-size="12.2" font-weight="650">berkeley</text><text class="word" x="286.964" y="291" text-anchor="end" fill="#FFFFFF" font-size="12.2" font-weight="650">fiction</text><text class="word" x="666.888" y="317" text-anchor="start" fill="#FFFFFF" font-size="12.2" font-weight="650">lifestyle</text><text class="word" x="296.67199999999997" y="343" text-anchor="end" fill="#FFFFFF" font-size="12.2" font-weight="650">physically</text><text class="word" x="663.726" y="369" text-anchor="start" fill="#FFFFFF" font-size="12.2" font-weight="650">together</text><text class="word" x="299.786" y="395" text-anchor="end" fill="#FFFFFF" font-size="12.2" font-weight="650">someone</text><text class="word" x="663.312" y="421" text-anchor="start" fill="#FFFFFF" font-size="12.2" font-weight="650">partnership</text><text class="word" x="305.426" y="447" text-anchor="end" fill="#FFFFFF" font-size="12.2" font-weight="650">interest</text><text class="word" x="657.54" y="473" text-anchor="start" fill="#FFFFFF" font-size="12.2" font-weight="650">relationships</text><text class="word" x="307.574" y="499" text-anchor="end" fill="#FFFFFF" font-size="12.2" font-weight="650">report</text><text class="word" x="652.41" y="525" text-anchor="start" fill="#FFFFFF" font-size="12.2" font-weight="650">francisco</text><text class="word" x="311.876" y="551" text-anchor="end" fill="#FFFFFF" font-size="12.2" font-weight="650">exciting</text><text class="word" x="641.5020000000001" y="577" text-anchor="start" fill="#FFFFFF" font-size="12.2" font-weight="650">notion</text><text class="word" x="317.04200000000003" y="603" text-anchor="end" fill="#FFFFFF" font-size="12.2" font-weight="650">respect</text><text class="word" x="640.3199999999999" y="629" text-anchor="start" fill="#FFFFFF" font-size="12.2" font-weight="650">traits</text><text class="word" x="322.94599999999997" y="655" text-anchor="end" fill="#FFFFFF" font-size="12.2" font-weight="650">everything</text><text class="word" x="636.492" y="681" text-anchor="start" fill="#FFFFFF" font-size="12.2" font-weight="650">support</text><text class="word" x="325.916" y="707" text-anchor="end" fill="#FFFFFF" font-size="12.2" font-weight="650">willing</text><text class="word" x="636.2639999999999" y="733" text-anchor="start" fill="#FFFFFF" font-size="12.2" font-weight="650">emotional</text><text class="word" x="329.864" y="759" text-anchor="end" fill="#FFFFFF" font-size="12.2" font-weight="650">opinions</text><text class="word" x="634.3140000000001" y="785" text-anchor="start" fill="#FFFFFF" font-size="12.2" font-weight="650">college</text><text class="word" x="332.588" y="811" text-anchor="end" fill="#FFFFFF" font-size="12.2" font-weight="650">british</text><text class="word" x="633.6659999999999" y="837" text-anchor="start" fill="#FFFFFF" font-size="12.2" font-weight="650">primary</text><text class="word" x="333.218" y="863" text-anchor="end" fill="#FFFFFF" font-size="12.2" font-weight="650">little</text><text class="word" x="632.286" y="889" text-anchor="start" fill="#FFFFFF" font-size="12.2" font-weight="650">partners</text><text class="word" x="333.806" y="915" text-anchor="end" fill="#FFFFFF" font-size="12.2" font-weight="650">things</text><text class="word" x="632.082" y="941" text-anchor="start" fill="#FFFFFF" font-size="12.2" font-weight="650">feelings</text><text class="word" x="337.034" y="967" text-anchor="end" fill="#FFFFFF" font-size="12.2" font-weight="650">listening</text><text class="word" x="630.462" y="993" text-anchor="start" fill="#FFFFFF" font-size="12.2" font-weight="650">anonymous</text><text class="word" x="339.2" y="1019" text-anchor="end" fill="#FFFFFF" font-size="12.2" font-weight="650">travelling</text><text class="word" x="629.61" y="1045" text-anchor="start" fill="#FFFFFF" font-size="12.2" font-weight="650">building</text><text class="word" x="339.2" y="1071" text-anchor="end" fill="#FFFFFF" font-size="12.2" font-weight="650">england</text><text class="word" x="626.4060000000001" y="1097" text-anchor="start" fill="#FFFFFF" font-size="12.2" font-weight="650">toward</text><text class="word" x="340.82599999999996" y="1123" text-anchor="end" fill="#FFFFFF" font-size="12.2" font-weight="650">recent</text></g><g><text class="val" x="482" y="109" text-anchor="end" fill="rgba(255,255,255,0.75)" font-size="11" opacity="0.95">3.22</text><text class="val" x="498" y="135" text-anchor="start" fill="rgba(255,255,255,0.75)" font-size="11" opacity="0.95">−5.97</text><text class="val" x="482" y="161" text-anchor="end" fill="rgba(255,255,255,0.75)" font-size="11" opacity="0.95">2.94</text><text class="val" x="498" y="187" text-anchor="start" fill="rgba(255,255,255,0.75)" font-size="11" opacity="0.95">−3.49</text><text class="val" x="482" y="213" text-anchor="end" fill="rgba(255,255,255,0.75)" font-size="11" opacity="0.95">2.94</text><text class="val" x="498" y="239" text-anchor="start" fill="rgba(255,255,255,0.75)" font-size="11" opacity="0.95">−3.46</text><text class="val" x="482" y="265" text-anchor="end" fill="rgba(255,255,255,0.75)" font-size="11" opacity="0.95">2.87</text><text class="val" x="498" y="291" text-anchor="start" fill="rgba(255,255,255,0.75)" font-size="11" opacity="0.95">−3.25</text><text class="val" x="482" y="317" text-anchor="end" fill="rgba(255,255,255,0.75)" font-size="11" opacity="0.95">2.81</text><text class="val" x="498" y="343" text-anchor="start" fill="rgba(255,255,255,0.75)" font-size="11" opacity="0.95">−3.09</text><text class="val" x="482" y="369" text-anchor="end" fill="rgba(255,255,255,0.75)" font-size="11" opacity="0.95">2.76</text><text class="val" x="498" y="395" text-anchor="start" fill="rgba(255,255,255,0.75)" font-size="11" opacity="0.95">−3.04</text><text class="val" x="482" y="421" text-anchor="end" fill="rgba(255,255,255,0.75)" font-size="11" opacity="0.95">2.76</text><text class="val" x="498" y="447" text-anchor="start" fill="rgba(255,255,255,0.75)" font-size="11" opacity="0.95">−2.94</text><text class="val" x="482" y="473" text-anchor="end" fill="rgba(255,255,255,0.75)" font-size="11" opacity="0.95">2.66</text><text class="val" x="498" y="499" text-anchor="start" fill="rgba(255,255,255,0.75)" font-size="11" opacity="0.95">−2.91</text><text class="val" x="482" y="525" text-anchor="end" fill="rgba(255,255,255,0.75)" font-size="11" opacity="0.95">2.57</text><text class="val" x="498" y="551" text-anchor="start" fill="rgba(255,255,255,0.75)" font-size="11" opacity="0.95">−2.84</text><text class="val" x="482" y="577" text-anchor="end" fill="rgba(255,255,255,0.75)" font-size="11" opacity="0.95">2.39</text><text class="val" x="498" y="603" text-anchor="start" fill="rgba(255,255,255,0.75)" font-size="11" opacity="0.95">−2.75</text><text class="val" x="482" y="629" text-anchor="end" fill="rgba(255,255,255,0.75)" font-size="11" opacity="0.95">2.37</text><text class="val" x="498" y="655" text-anchor="start" fill="rgba(255,255,255,0.75)" font-size="11" opacity="0.95">−2.65</text><text class="val" x="482" y="681" text-anchor="end" fill="rgba(255,255,255,0.75)" font-size="11" opacity="0.95">2.31</text><text class="val" x="498" y="707" text-anchor="start" fill="rgba(255,255,255,0.75)" font-size="11" opacity="0.95">−2.60</text><text class="val" x="482" y="733" text-anchor="end" fill="rgba(255,255,255,0.75)" font-size="11" opacity="0.95">2.30</text><text class="val" x="498" y="759" text-anchor="start" fill="rgba(255,255,255,0.75)" font-size="11" opacity="0.95">−2.54</text><text class="val" x="482" y="785" text-anchor="end" fill="rgba(255,255,255,0.75)" font-size="11" opacity="0.95">2.27</text><text class="val" x="498" y="811" text-anchor="start" fill="rgba(255,255,255,0.75)" font-size="11" opacity="0.95">−2.49</text><text class="val" x="482" y="837" text-anchor="end" fill="rgba(255,255,255,0.75)" font-size="11" opacity="0.95">2.26</text><text class="val" x="498" y="863" text-anchor="start" fill="rgba(255,255,255,0.75)" font-size="11" opacity="0.95">−2.48</text><text class="val" x="482" y="889" text-anchor="end" fill="rgba(255,255,255,0.75)" font-size="11" opacity="0.95">2.24</text><text class="val" x="498" y="915" text-anchor="start" fill="rgba(255,255,255,0.75)" font-size="11" opacity="0.95">−2.47</text><text class="val" x="482" y="941" text-anchor="end" fill="rgba(255,255,255,0.75)" font-size="11" opacity="0.95">2.23</text><text class="val" x="498" y="967" text-anchor="start" fill="rgba(255,255,255,0.75)" font-size="11" opacity="0.95">−2.42</text><text class="val" x="482" y="993" text-anchor="end" fill="rgba(255,255,255,0.75)" font-size="11" opacity="0.95">2.21</text><text class="val" x="498" y="1019" text-anchor="start" fill="rgba(255,255,255,0.75)" font-size="11" opacity="0.95">−2.38</text><text class="val" x="482" y="1045" text-anchor="end" fill="rgba(255,255,255,0.75)" font-size="11" opacity="0.95">2.19</text><text class="val" x="498" y="1071" text-anchor="start" fill="rgba(255,255,255,0.75)" font-size="11" opacity="0.95">−2.38</text><text class="val" x="482" y="1097" text-anchor="end" fill="rgba(255,255,255,0.75)" font-size="11" opacity="0.95">2.14</text><text class="val" x="498" y="1123" text-anchor="start" fill="rgba(255,255,255,0.75)" font-size="11" opacity="0.95">−2.35</text></g><text x="490" y="1172" text-anchor="middle" fill="rgba(255,255,255,0.75)" font-size="12">Z-score (distinctiveness)</text></svg>
