<svg xmlns="http://www.w3.org/2000/svg" width="980" height="420" viewBox="-90 -55 1160 530" preserveAspectRatio="xMidYMid meet" style="max-width: 100%; height: auto; display: block; font-family: ui-serif, Georgia, &quot;Times New Roman&quot;, Times, serif; font-size: 12px;"><rect x="-90" y="-55" width="1160" height="530" fill="#0B0B0F"></rect><text x="90" y="32" fill="#EAEAEA" font-size="18" font-weight="700">Sentence complexity by gender (Interested in men)</text><text x="90" y="52" fill="#EAEAEA" font-size="12" opacity="0.9">Dot = mean long_sentence_pct. Band = 25th–75th percentile (IQR).</text><g><line x1="90" x2="90" y1="85" y2="360" stroke="#EAEAEA" opacity="0.08"></line><line x1="232.5" x2="232.5" y1="85" y2="360" stroke="#EAEAEA" opacity="0.08"></line><line x1="375" x2="375" y1="85" y2="360" stroke="#EAEAEA" opacity="0.08"></line><line x1="517.5" x2="517.5" y1="85" y2="360" stroke="#EAEAEA" opacity="0.08"></line><line x1="660" x2="660" y1="85" y2="360" stroke="#EAEAEA" opacity="0.08"></line><line x1="802.5" x2="802.5" y1="85" y2="360" stroke="#EAEAEA" opacity="0.08"></line><line x1="945" x2="945" y1="85" y2="360" stroke="#EAEAEA" opacity="0.08"></line></g><g transform="translate(0, 360)" fill="none" font-size="10" font-family="sans-serif" text-anchor="middle"><path class="domain" stroke="#EAEAEA" d="M90.5,6V0.5H945.5V6" opacity="0.7"></path><g class="tick" opacity="1" transform="translate(90.5,0)"><line stroke="#EAEAEA" y2="6" opacity="0.7"></line><text fill="#EAEAEA" y="9" dy="0.71em" font-size="11">0%</text></g><g class="tick" opacity="1" transform="translate(233,0)"><line stroke="#EAEAEA" y2="6" opacity="0.7"></line><text fill="#EAEAEA" y="9" dy="0.71em" font-size="11">5%</text></g><g class="tick" opacity="1" transform="translate(375.5,0)"><line stroke="#EAEAEA" y2="6" opacity="0.7"></line><text fill="#EAEAEA" y="9" dy="0.71em" font-size="11">10%</text></g><g class="tick" opacity="1" transform="translate(518,0)"><line stroke="#EAEAEA" y2="6" opacity="0.7"></line><text fill="#EAEAEA" y="9" dy="0.71em" font-size="11">15%</text></g><g class="tick" opacity="1" transform="translate(660.5,0)"><line stroke="#EAEAEA" y2="6" opacity="0.7"></line><text fill="#EAEAEA" y="9" dy="0.71em" font-size="11">20%</text></g><g class="tick" opacity="1" transform="translate(803,0)"><line stroke="#EAEAEA" y2="6" opacity="0.7"></line><text fill="#EAEAEA" y="9" dy="0.71em" font-size="11">25%</text></g><g class="tick" opacity="1" transform="translate(945.5,0)"><line stroke="#EAEAEA" y2="6" opacity="0.7"></line><text fill="#EAEAEA" y="9" dy="0.71em" font-size="11">30%</text></g></g><text x="517.5" y="410" text-anchor="middle" fill="#EAEAEA" font-size="12" opacity="0.9">Long sentence percentage (per profile)</text><g><text x="78" y="144.410447761194" text-anchor="end" fill="#EAEAEA" font-size="12" font-weight="700">Men</text><text x="78" y="226.5" text-anchor="end" fill="#EAEAEA" font-size="12" font-weight="700">Women</text><text x="78" y="308.589552238806" text-anchor="end" fill="#EAEAEA" font-size="12" font-weight="700">Nonbinary</text></g><g><line x1="166.26600000000002" x2="653.73" y1="140.410447761194" y2="140.410447761194" stroke="#2F6BFF" stroke-width="10" stroke-linecap="round" opacity="0.35"></line><line x1="348.00337499999995" x2="842.9699999999999" y1="222.5" y2="222.5" stroke="#2F6BFF" stroke-width="10" stroke-linecap="round" opacity="0.35"></line><line x1="493.11825000000005" x2="754.4775" y1="304.589552238806" y2="304.589552238806" stroke="#2F6BFF" stroke-width="10" stroke-linecap="round" opacity="0.35"></line><circle cx="473.4239117647059" cy="140.410447761194" r="7" fill="#2F6BFF" opacity="0.95"></circle><circle cx="622.1131914893618" cy="222.5" r="7" fill="#2F6BFF" opacity="0.95"></circle><circle cx="651.735" cy="304.589552238806" r="7" fill="#2F6BFF" opacity="0.95"></circle><text x="485.4239117647059" y="144.410447761194" fill="#EAEAEA" font-size="11" font-weight="700">13.5%  (n=17)</text><text x="634.1131914893618" y="226.5" fill="#EAEAEA" font-size="11" font-weight="700">18.7%  (n=94)</text><text x="663.735" y="308.589552238806" fill="#EAEAEA" font-size="11" font-weight="700">19.7%  (n=3)</text></g></svg>