<svg xmlns="http://www.w3.org/2000/svg" width="980" height="420" viewBox="-90 -55 1160 530" preserveAspectRatio="xMidYMid meet" style="max-width: 100%; height: auto; display: block; font-family: ui-serif, Georgia, &quot;Times New Roman&quot;, Times, serif; font-size: 12px;"><rect x="-90" y="-55" width="1160" height="530" fill="#0B0B0F"></rect><text x="90" y="32" fill="#EAEAEA" font-size="18" font-weight="700">Sentence complexity by gender (Interested in women)</text><text x="90" y="52" fill="#EAEAEA" font-size="12" opacity="0.9">Dot = mean long_sentence_pct. Band = 25th–75th percentile (IQR).</text><g><line x1="90" x2="90" y1="85" y2="360" stroke="#EAEAEA" opacity="0.08"></line><line x1="196.875" x2="196.875" y1="85" y2="360" stroke="#EAEAEA" opacity="0.08"></line><line x1="303.75" x2="303.75" y1="85" y2="360" stroke="#EAEAEA" opacity="0.08"></line><line x1="410.625" x2="410.625" y1="85" y2="360" stroke="#EAEAEA" opacity="0.08"></line><line x1="517.5" x2="517.5" y1="85" y2="360" stroke="#EAEAEA" opacity="0.08"></line><line x1="624.375" x2="624.375" y1="85" y2="360" stroke="#EAEAEA" opacity="0.08"></line><line x1="731.25" x2="731.25" y1="85" y2="360" stroke="#EAEAEA" opacity="0.08"></line><line x1="838.125" x2="838.125" y1="85" y2="360" stroke="#EAEAEA" opacity="0.08"></line><line x1="945" x2="945" y1="85" y2="360" stroke="#EAEAEA" opacity="0.08"></line></g><g transform="translate(0, 360)" fill="none" font-size="10" font-family="sans-serif" text-anchor="middle"><path class="domain" stroke="#EAEAEA" d="M90.5,6V0.5H945.5V6" opacity="0.7"></path><g class="tick" opacity="1" transform="translate(90.5,0)"><line stroke="#EAEAEA" y2="6" opacity="0.7"></line><text fill="#EAEAEA" y="9" dy="0.71em" font-size="11">0%</text></g><g class="tick" opacity="1" transform="translate(197.375,0)"><line stroke="#EAEAEA" y2="6" opacity="0.7"></line><text fill="#EAEAEA" y="9" dy="0.71em" font-size="11">5%</text></g><g class="tick" opacity="1" transform="translate(304.25,0)"><line stroke="#EAEAEA" y2="6" opacity="0.7"></line><text fill="#EAEAEA" y="9" dy="0.71em" font-size="11">10%</text></g><g class="tick" opacity="1" transform="translate(411.125,0)"><line stroke="#EAEAEA" y2="6" opacity="0.7"></line><text fill="#EAEAEA" y="9" dy="0.71em" font-size="11">15%</text></g><g class="tick" opacity="1" transform="translate(518,0)"><line stroke="#EAEAEA" y2="6" opacity="0.7"></line><text fill="#EAEAEA" y="9" dy="0.71em" font-size="11">20%</text></g><g class="tick" opacity="1" transform="translate(624.875,0)"><line stroke="#EAEAEA" y2="6" opacity="0.7"></line><text fill="#EAEAEA" y="9" dy="0.71em" font-size="11">25%</text></g><g class="tick" opacity="1" transform="translate(731.75,0)"><line stroke="#EAEAEA" y2="6" opacity="0.7"></line><text fill="#EAEAEA" y="9" dy="0.71em" font-size="11">30%</text></g><g class="tick" opacity="1" transform="translate(838.625,0)"><line stroke="#EAEAEA" y2="6" opacity="0.7"></line><text fill="#EAEAEA" y="9" dy="0.71em" font-size="11">35%</text></g><g class="tick" opacity="1" transform="translate(945.5,0)"><line stroke="#EAEAEA" y2="6" opacity="0.7"></line><text fill="#EAEAEA" y="9" dy="0.71em" font-size="11">40%</text></g></g><text x="517.5" y="410" text-anchor="middle" fill="#EAEAEA" font-size="12" opacity="0.9">Long sentence percentage (per profile)</text><g><text x="78" y="144.410447761194" text-anchor="end" fill="#EAEAEA" font-size="12" font-weight="700">Men</text><text x="78" y="226.5" text-anchor="end" fill="#EAEAEA" font-size="12" font-weight="700">Women</text><text x="78" y="308.589552238806" text-anchor="end" fill="#EAEAEA" font-size="12" font-weight="700">Nonbinary</text></g><g><line x1="226.80534375" x2="631.1722499999998" y1="140.410447761194" y2="140.410447761194" stroke="#FF2EA6" stroke-width="10" stroke-linecap="round" opacity="0.35"></line><line x1="343.55024999999995" x2="843.84815625" y1="222.5" y2="222.5" stroke="#FF2EA6" stroke-width="10" stroke-linecap="round" opacity="0.35"></line><line x1="425.7905625000001" x2="621.8100000000001" y1="304.589552238806" y2="304.589552238806" stroke="#FF2EA6" stroke-width="10" stroke-linecap="round" opacity="0.35"></line><circle cx="442.8264374999999" cy="140.410447761194" r="7" fill="#FF2EA6" opacity="0.95"></circle><circle cx="689.0542232142859" cy="222.5" r="7" fill="#FF2EA6" opacity="0.95"></circle><circle cx="533.6025" cy="304.589552238806" r="7" fill="#FF2EA6" opacity="0.95"></circle><text x="454.8264374999999" y="144.410447761194" fill="#EAEAEA" font-size="11" font-weight="700">16.5%  (n=206)</text><text x="701.0542232142859" y="226.5" fill="#EAEAEA" font-size="11" font-weight="700">28.0%  (n=14)</text><text x="545.6025" y="308.589552238806" fill="#EAEAEA" font-size="11" font-weight="700">20.8%  (n=3)</text></g></svg>