<svg xmlns="http://www.w3.org/2000/svg" width="980" height="1162"><text x="40" y="28" fill="#EAEAEA" font-size="18" font-weight="700">Most distinctive words: SF Bay Area vs UK/London</text><text x="40" y="48" fill="#EAEAEA" font-size="12" opacity="0.9">Top 20 per side. Bars are z-scores (Bay positive, UK negative).</text><line x1="490" x2="490" y1="74" y2="1120" stroke="#EAEAEA" stroke-width="1" opacity="0.8"></line><g transform="translate(0, 1126)" fill="none" font-size="10" font-family="sans-serif" text-anchor="middle"><path class="domain" stroke="#EAEAEA" d="M40.5,6V0.5H940.5V6" opacity="0.7"></path><g class="tick" opacity="1" transform="translate(40.5,0)"><line stroke="#EAEAEA" y2="6" opacity="0.7"></line><text fill="#EAEAEA" y="9" dy="0.71em" font-size="11">−6</text></g><g class="tick" opacity="1" transform="translate(190.5,0)"><line stroke="#EAEAEA" y2="6" opacity="0.7"></line><text fill="#EAEAEA" y="9" dy="0.71em" font-size="11">−4</text></g><g class="tick" opacity="1" transform="translate(340.5,0)"><line stroke="#EAEAEA" y2="6" opacity="0.7"></line><text fill="#EAEAEA" y="9" dy="0.71em" font-size="11">−2</text></g><g class="tick" opacity="1" transform="translate(490.5,0)"><line stroke="#EAEAEA" y2="6" opacity="0.7"></line><text fill="#EAEAEA" y="9" dy="0.71em" font-size="11">0</text></g><g class="tick" opacity="1" transform="translate(640.5,0)"><line stroke="#EAEAEA" y2="6" opacity="0.7"></line><text fill="#EAEAEA" y="9" dy="0.71em" font-size="11">2</text></g><g class="tick" opacity="1" transform="translate(790.5,0)"><line stroke="#EAEAEA" y2="6" opacity="0.7"></line><text fill="#EAEAEA" y="9" dy="0.71em" font-size="11">4</text></g><g class="tick" opacity="1" transform="translate(940.5,0)"><line stroke="#EAEAEA" y2="6" opacity="0.7"></line><text fill="#EAEAEA" y="9" dy="0.71em" font-size="11">6</text></g></g><g><rect x="490" y="86" width="241.15499999999997" height="14" rx="3" fill="#2F6FED" opacity="0.9"></rect><rect x="41.87500000000003" y="112" width="448.125" height="14" rx="3" fill="#B84CF0" opacity="0.9"></rect><rect x="490" y="138" width="220.7550000000001" height="14" rx="3" fill="#2F6FED" opacity="0.9"></rect><rect x="228.45250000000001" y="164" width="261.5475" height="14" rx="3" fill="#B84CF0" opacity="0.9"></rect><rect x="490" y="190" width="220.52250000000004" height="14" rx="3" fill="#2F6FED" opacity="0.9"></rect><rect x="230.5075" y="216" width="259.4925" height="14" rx="3" fill="#B84CF0" opacity="0.9"></rect><rect x="490" y="242" width="215.54999999999995" height="14" rx="3" fill="#2F6FED" opacity="0.9"></rect><rect x="246.20499999999998" y="268" width="243.79500000000002" height="14" rx="3" fill="#B84CF0" opacity="0.9"></rect><rect x="490" y="294" width="211.11" height="14" rx="3" fill="#2F6FED" opacity="0.9"></rect><rect x="258.34000000000003" y="320" width="231.65999999999997" height="14" rx="3" fill="#B84CF0" opacity="0.9"></rect><rect x="490" y="346" width="207.15750000000003" height="14" rx="3" fill="#2F6FED" opacity="0.9"></rect><rect x="262.23249999999996" y="372" width="227.76750000000004" height="14" rx="3" fill="#B84CF0" opacity="0.9"></rect><rect x="490" y="398" width="206.6400000000001" height="14" rx="3" fill="#2F6FED" opacity="0.9"></rect><rect x="269.2825" y="424" width="220.71749999999997" height="14" rx="3" fill="#B84CF0" opacity="0.9"></rect><rect x="490" y="450" width="199.42499999999995" height="14" rx="3" fill="#2F6FED" opacity="0.9"></rect><rect x="271.96750000000003" y="476" width="218.03249999999997" height="14" rx="3" fill="#B84CF0" opacity="0.9"></rect><rect x="490" y="502" width="193.01249999999993" height="14" rx="3" fill="#2F6FED" opacity="0.9"></rect><rect x="277.345" y="528" width="212.65499999999997" height="14" rx="3" fill="#B84CF0" opacity="0.9"></rect><rect x="490" y="554" width="179.37749999999994" height="14" rx="3" fill="#2F6FED" opacity="0.9"></rect><rect x="283.8025" y="580" width="206.1975" height="14" rx="3" fill="#B84CF0" opacity="0.9"></rect><rect x="490" y="606" width="177.89999999999998" height="14" rx="3" fill="#2F6FED" opacity="0.9"></rect><rect x="291.1825" y="632" width="198.8175" height="14" rx="3" fill="#B84CF0" opacity="0.9"></rect><rect x="490" y="658" width="173.115" height="14" rx="3" fill="#2F6FED" opacity="0.9"></rect><rect x="294.895" y="684" width="195.10500000000002" height="14" rx="3" fill="#B84CF0" opacity="0.9"></rect><rect x="490" y="710" width="172.82999999999993" height="14" rx="3" fill="#2F6FED" opacity="0.9"></rect><rect x="299.83" y="736" width="190.17000000000002" height="14" rx="3" fill="#B84CF0" opacity="0.9"></rect><rect x="490" y="762" width="170.39250000000004" height="14" rx="3" fill="#2F6FED" opacity="0.9"></rect><rect x="303.23499999999996" y="788" width="186.76500000000004" height="14" rx="3" fill="#B84CF0" opacity="0.9"></rect><rect x="490" y="814" width="169.58249999999987" height="14" rx="3" fill="#2F6FED" opacity="0.9"></rect><rect x="304.0225" y="840" width="185.97750000000002" height="14" rx="3" fill="#B84CF0" opacity="0.9"></rect><rect x="490" y="866" width="167.85749999999996" height="14" rx="3" fill="#2F6FED" opacity="0.9"></rect><rect x="304.75750000000005" y="892" width="185.24249999999995" height="14" rx="3" fill="#B84CF0" opacity="0.9"></rect><rect x="490" y="918" width="167.60249999999996" height="14" rx="3" fill="#2F6FED" opacity="0.9"></rect><rect x="308.7925" y="944" width="181.20749999999998" height="14" rx="3" fill="#B84CF0" opacity="0.9"></rect><rect x="490" y="970" width="165.57749999999987" height="14" rx="3" fill="#2F6FED" opacity="0.9"></rect><rect x="311.50000000000006" y="996" width="178.49999999999994" height="14" rx="3" fill="#B84CF0" opacity="0.9"></rect><rect x="490" y="1022" width="164.51250000000005" height="14" rx="3" fill="#2F6FED" opacity="0.9"></rect><rect x="311.50000000000006" y="1048" width="178.49999999999994" height="14" rx="3" fill="#B84CF0" opacity="0.9"></rect><rect x="490" y="1074" width="160.50750000000016" height="14" rx="3" fill="#2F6FED" opacity="0.9"></rect><rect x="313.5325" y="1100" width="176.46749999999997" height="14" rx="3" fill="#B84CF0" opacity="0.9"></rect></g><g><text x="737.155" y="97" text-anchor="start" fill="#EAEAEA" font-size="12" font-weight="600">favorite</text><text x="35.87500000000003" y="123" text-anchor="end" fill="#EAEAEA" font-size="12" font-weight="600">london</text><text x="716.7550000000001" y="149" text-anchor="start" fill="#EAEAEA" font-size="12" font-weight="600">research</text><text x="222.45250000000001" y="175" text-anchor="end" fill="#EAEAEA" font-size="12" font-weight="600">ideally</text><text x="716.5225" y="201" text-anchor="start" fill="#EAEAEA" font-size="12" font-weight="600">working</text><text x="224.5075" y="227" text-anchor="end" fill="#EAEAEA" font-size="12" font-weight="600">generally</text><text x="711.55" y="253" text-anchor="start" fill="#EAEAEA" font-size="12" font-weight="600">berkeley</text><text x="240.20499999999998" y="279" text-anchor="end" fill="#EAEAEA" font-size="12" font-weight="600">fiction</text><text x="707.11" y="305" text-anchor="start" fill="#EAEAEA" font-size="12" font-weight="600">lifestyle</text><text x="252.34000000000003" y="331" text-anchor="end" fill="#EAEAEA" font-size="12" font-weight="600">physically</text><text x="703.1575" y="357" text-anchor="start" fill="#EAEAEA" font-size="12" font-weight="600">together</text><text x="256.23249999999996" y="383" text-anchor="end" fill="#EAEAEA" font-size="12" font-weight="600">someone</text><text x="702.6400000000001" y="409" text-anchor="start" fill="#EAEAEA" font-size="12" font-weight="600">partnership</text><text x="263.2825" y="435" text-anchor="end" fill="#EAEAEA" font-size="12" font-weight="600">interest</text><text x="695.425" y="461" text-anchor="start" fill="#EAEAEA" font-size="12" font-weight="600">relationships</text><text x="265.96750000000003" y="487" text-anchor="end" fill="#EAEAEA" font-size="12" font-weight="600">report</text><text x="689.0124999999999" y="513" text-anchor="start" fill="#EAEAEA" font-size="12" font-weight="600">francisco</text><text x="271.345" y="539" text-anchor="end" fill="#EAEAEA" font-size="12" font-weight="600">exciting</text><text x="675.3774999999999" y="565" text-anchor="start" fill="#EAEAEA" font-size="12" font-weight="600">notion</text><text x="277.8025" y="591" text-anchor="end" fill="#EAEAEA" font-size="12" font-weight="600">respect</text><text x="673.9" y="617" text-anchor="start" fill="#EAEAEA" font-size="12" font-weight="600">traits</text><text x="285.1825" y="643" text-anchor="end" fill="#EAEAEA" font-size="12" font-weight="600">everything</text><text x="669.115" y="669" text-anchor="start" fill="#EAEAEA" font-size="12" font-weight="600">support</text><text x="288.895" y="695" text-anchor="end" fill="#EAEAEA" font-size="12" font-weight="600">willing</text><text x="668.8299999999999" y="721" text-anchor="start" fill="#EAEAEA" font-size="12" font-weight="600">emotional</text><text x="293.83" y="747" text-anchor="end" fill="#EAEAEA" font-size="12" font-weight="600">opinions</text><text x="666.3925" y="773" text-anchor="start" fill="#EAEAEA" font-size="12" font-weight="600">college</text><text x="297.23499999999996" y="799" text-anchor="end" fill="#EAEAEA" font-size="12" font-weight="600">british</text><text x="665.5824999999999" y="825" text-anchor="start" fill="#EAEAEA" font-size="12" font-weight="600">primary</text><text x="298.0225" y="851" text-anchor="end" fill="#EAEAEA" font-size="12" font-weight="600">little</text><text x="663.8575" y="877" text-anchor="start" fill="#EAEAEA" font-size="12" font-weight="600">partners</text><text x="298.75750000000005" y="903" text-anchor="end" fill="#EAEAEA" font-size="12" font-weight="600">things</text><text x="663.6025" y="929" text-anchor="start" fill="#EAEAEA" font-size="12" font-weight="600">feelings</text><text x="302.7925" y="955" text-anchor="end" fill="#EAEAEA" font-size="12" font-weight="600">listening</text><text x="661.5774999999999" y="981" text-anchor="start" fill="#EAEAEA" font-size="12" font-weight="600">anonymous</text><text x="305.50000000000006" y="1007" text-anchor="end" fill="#EAEAEA" font-size="12" font-weight="600">travelling</text><text x="660.5125" y="1033" text-anchor="start" fill="#EAEAEA" font-size="12" font-weight="600">building</text><text x="305.50000000000006" y="1059" text-anchor="end" fill="#EAEAEA" font-size="12" font-weight="600">england</text><text x="656.5075000000002" y="1085" text-anchor="start" fill="#EAEAEA" font-size="12" font-weight="600">toward</text><text x="307.5325" y="1111" text-anchor="end" fill="#EAEAEA" font-size="12" font-weight="600">recent</text></g><g><text x="484" y="97" text-anchor="end" fill="#EAEAEA" font-size="11" opacity="0.9">3.22</text><text x="496" y="123" text-anchor="start" fill="#EAEAEA" font-size="11" opacity="0.9">−5.97</text><text x="484" y="149" text-anchor="end" fill="#EAEAEA" font-size="11" opacity="0.9">2.94</text><text x="496" y="175" text-anchor="start" fill="#EAEAEA" font-size="11" opacity="0.9">−3.49</text><text x="484" y="201" text-anchor="end" fill="#EAEAEA" font-size="11" opacity="0.9">2.94</text><text x="496" y="227" text-anchor="start" fill="#EAEAEA" font-size="11" opacity="0.9">−3.46</text><text x="484" y="253" text-anchor="end" fill="#EAEAEA" font-size="11" opacity="0.9">2.87</text><text x="496" y="279" text-anchor="start" fill="#EAEAEA" font-size="11" opacity="0.9">−3.25</text><text x="484" y="305" text-anchor="end" fill="#EAEAEA" font-size="11" opacity="0.9">2.81</text><text x="496" y="331" text-anchor="start" fill="#EAEAEA" font-size="11" opacity="0.9">−3.09</text><text x="484" y="357" text-anchor="end" fill="#EAEAEA" font-size="11" opacity="0.9">2.76</text><text x="496" y="383" text-anchor="start" fill="#EAEAEA" font-size="11" opacity="0.9">−3.04</text><text x="484" y="409" text-anchor="end" fill="#EAEAEA" font-size="11" opacity="0.9">2.76</text><text x="496" y="435" text-anchor="start" fill="#EAEAEA" font-size="11" opacity="0.9">−2.94</text><text x="484" y="461" text-anchor="end" fill="#EAEAEA" font-size="11" opacity="0.9">2.66</text><text x="496" y="487" text-anchor="start" fill="#EAEAEA" font-size="11" opacity="0.9">−2.91</text><text x="484" y="513" text-anchor="end" fill="#EAEAEA" font-size="11" opacity="0.9">2.57</text><text x="496" y="539" text-anchor="start" fill="#EAEAEA" font-size="11" opacity="0.9">−2.84</text><text x="484" y="565" text-anchor="end" fill="#EAEAEA" font-size="11" opacity="0.9">2.39</text><text x="496" y="591" text-anchor="start" fill="#EAEAEA" font-size="11" opacity="0.9">−2.75</text><text x="484" y="617" text-anchor="end" fill="#EAEAEA" font-size="11" opacity="0.9">2.37</text><text x="496" y="643" text-anchor="start" fill="#EAEAEA" font-size="11" opacity="0.9">−2.65</text><text x="484" y="669" text-anchor="end" fill="#EAEAEA" font-size="11" opacity="0.9">2.31</text><text x="496" y="695" text-anchor="start" fill="#EAEAEA" font-size="11" opacity="0.9">−2.60</text><text x="484" y="721" text-anchor="end" fill="#EAEAEA" font-size="11" opacity="0.9">2.30</text><text x="496" y="747" text-anchor="start" fill="#EAEAEA" font-size="11" opacity="0.9">−2.54</text><text x="484" y="773" text-anchor="end" fill="#EAEAEA" font-size="11" opacity="0.9">2.27</text><text x="496" y="799" text-anchor="start" fill="#EAEAEA" font-size="11" opacity="0.9">−2.49</text><text x="484" y="825" text-anchor="end" fill="#EAEAEA" font-size="11" opacity="0.9">2.26</text><text x="496" y="851" text-anchor="start" fill="#EAEAEA" font-size="11" opacity="0.9">−2.48</text><text x="484" y="877" text-anchor="end" fill="#EAEAEA" font-size="11" opacity="0.9">2.24</text><text x="496" y="903" text-anchor="start" fill="#EAEAEA" font-size="11" opacity="0.9">−2.47</text><text x="484" y="929" text-anchor="end" fill="#EAEAEA" font-size="11" opacity="0.9">2.23</text><text x="496" y="955" text-anchor="start" fill="#EAEAEA" font-size="11" opacity="0.9">−2.42</text><text x="484" y="981" text-anchor="end" fill="#EAEAEA" font-size="11" opacity="0.9">2.21</text><text x="496" y="1007" text-anchor="start" fill="#EAEAEA" font-size="11" opacity="0.9">−2.38</text><text x="484" y="1033" text-anchor="end" fill="#EAEAEA" font-size="11" opacity="0.9">2.19</text><text x="496" y="1059" text-anchor="start" fill="#EAEAEA" font-size="11" opacity="0.9">−2.38</text><text x="484" y="1085" text-anchor="end" fill="#EAEAEA" font-size="11" opacity="0.9">2.14</text><text x="496" y="1111" text-anchor="start" fill="#EAEAEA" font-size="11" opacity="0.9">−2.35</text></g><text x="938.125" y="68" text-anchor="end" fill="#2F6FED" font-size="12" font-weight="700">Bay Area distinctive (+z)</text><text x="41.87500000000003" y="68" text-anchor="start" fill="#B84CF0" font-size="12" font-weight="700">UK/London distinctive (−z)</text></svg>