<svg xmlns="http://www.w3.org/2000/svg" width="1150" height="620" style="font-family: -apple-system, BlinkMacSystemFont, &quot;Segoe UI&quot;, Roboto, Helvetica, Arial, sans-serif; font-size: 12px; fill: #ad1f15;"><text x="575" y="32" text-anchor="middle" font-size="18" font-weight="700" fill="#ad1f15">Exclamation use by generation (per 100k words)</text><g transform="translate(90,70)"><g><line x1="0" x2="1030" y1="470" y2="470" stroke="rgba(0,0,0,0.10)" stroke-width="1"></line><line x1="0" x2="1030" y1="411.25" y2="411.25" stroke="rgba(0,0,0,0.10)" stroke-width="1"></line><line x1="0" x2="1030" y1="352.5" y2="352.5" stroke="rgba(0,0,0,0.10)" stroke-width="1"></line><line x1="0" x2="1030" y1="293.75" y2="293.75" stroke="rgba(0,0,0,0.10)" stroke-width="1"></line><line x1="0" x2="1030" y1="235" y2="235" stroke="rgba(0,0,0,0.10)" stroke-width="1"></line><line x1="0" x2="1030" y1="176.25" y2="176.25" stroke="rgba(0,0,0,0.10)" stroke-width="1"></line><line x1="0" x2="1030" y1="117.5" y2="117.5" stroke="rgba(0,0,0,0.10)" stroke-width="1"></line><line x1="0" x2="1030" y1="58.75" y2="58.75" stroke="rgba(0,0,0,0.10)" stroke-width="1"></line><line x1="0" x2="1030" y1="0" y2="0" stroke="rgba(0,0,0,0.10)" stroke-width="1"></line></g><g fill="none" font-size="10" font-family="sans-serif" text-anchor="end"><path class="domain" stroke="currentColor" d="M-6,470.5H0.5V0.5H-6"></path><g class="tick" opacity="1" transform="translate(0,470.5)"><line stroke="currentColor" x2="-6"></line><text fill="currentColor" x="-9" dy="0.32em">0</text></g><g class="tick" opacity="1" transform="translate(0,411.75)"><line stroke="currentColor" x2="-6"></line><text fill="currentColor" x="-9" dy="0.32em">500</text></g><g class="tick" opacity="1" transform="translate(0,353)"><line stroke="currentColor" x2="-6"></line><text fill="currentColor" x="-9" dy="0.32em">1,000</text></g><g class="tick" opacity="1" transform="translate(0,294.25)"><line stroke="currentColor" x2="-6"></line><text fill="currentColor" x="-9" dy="0.32em">1,500</text></g><g class="tick" opacity="1" transform="translate(0,235.5)"><line stroke="currentColor" x2="-6"></line><text fill="currentColor" x="-9" dy="0.32em">2,000</text></g><g class="tick" opacity="1" transform="translate(0,176.75)"><line stroke="currentColor" x2="-6"></line><text fill="currentColor" x="-9" dy="0.32em">2,500</text></g><g class="tick" opacity="1" transform="translate(0,118)"><line stroke="currentColor" x2="-6"></line><text fill="currentColor" x="-9" dy="0.32em">3,000</text></g><g class="tick" opacity="1" transform="translate(0,59.25)"><line stroke="currentColor" x2="-6"></line><text fill="currentColor" x="-9" dy="0.32em">3,500</text></g><g class="tick" opacity="1" transform="translate(0,0.5)"><line stroke="currentColor" x2="-6"></line><text fill="currentColor" x="-9" dy="0.32em">4,000</text></g></g><g transform="translate(0,470)" fill="none" font-size="10" font-family="sans-serif" text-anchor="middle"><path class="domain" stroke="currentColor" d="M0.5,6V0.5H1030.5V6"></path><g class="tick" opacity="1" transform="translate(151.47058823529414,0)"><line stroke="currentColor" y2="6"></line><text fill="currentColor" y="9" dy="0.71em">Gen Z</text></g><g class="tick" opacity="1" transform="translate(393.82352941176475,0)"><line stroke="currentColor" y2="6"></line><text fill="currentColor" y="9" dy="0.71em">Millennial</text></g><g class="tick" opacity="1" transform="translate(636.1764705882352,0)"><line stroke="currentColor" y2="6"></line><text fill="currentColor" y="9" dy="0.71em">Gen X</text></g><g class="tick" opacity="1" transform="translate(878.5294117647059,0)"><line stroke="currentColor" y2="6"></line><text fill="currentColor" y="9" dy="0.71em">Boomer</text></g></g><line x1="151.47058823529414" x2="151.47058823529414" y1="470" y2="280.48389749999996" stroke="#ad1f15" stroke-width="1.2"></line><line x1="116.48088235294121" x2="186.4602941176471" y1="470" y2="470" stroke="#ad1f15" stroke-width="1.2"></line><line x1="116.48088235294121" x2="186.4602941176471" y1="280.48389749999996" y2="280.48389749999996" stroke="#ad1f15" stroke-width="1.2"></line><rect x="101.48529411764709" y="376.131041875" width="99.97058823529412" height="67.72500249999996" fill="rgba(17,17,17,0.10)" stroke="#ad1f15" stroke-width="1.2"></rect><line x1="101.48529411764709" x2="201.45588235294122" y1="423.67427375" y2="423.67427375" stroke="#ad1f15" stroke-width="2"></line><circle cx="166.96048760114255" cy="470" r="2.2" fill="rgba(17,17,17,0.35)" stroke="none" stroke-width="0"></circle><circle cx="160.34307267491175" cy="441.99046749999997" r="2.2" fill="rgba(17,17,17,0.35)" stroke="none" stroke-width="0"></circle><circle cx="198.25363780496173" cy="444.548795" r="2.2" fill="rgba(17,17,17,0.35)" stroke="none" stroke-width="0"></circle><circle cx="111.79053105075114" cy="408.8021225" r="2.2" fill="rgba(17,17,17,0.35)" stroke="none" stroke-width="0"></circle><circle cx="107.90222455610538" cy="470" r="2.2" fill="rgba(17,17,17,0.35)" stroke="none" stroke-width="0"></circle><circle cx="171.0844376436185" cy="428.67525" r="2.2" fill="rgba(17,17,17,0.35)" stroke="none" stroke-width="0"></circle><circle cx="193.2767005229739" cy="470" r="2.2" fill="rgba(17,17,17,0.35)" stroke="none" stroke-width="0"></circle><circle cx="126.35566641912072" cy="439.58583000000004" r="2.2" fill="rgba(17,17,17,0.35)" stroke="none" stroke-width="0"></circle><circle cx="170.5952239323007" cy="387.35049999999995" r="2.2" fill="rgba(17,17,17,0.35)" stroke="none" stroke-width="0"></circle><circle cx="140.9065362786008" cy="470" r="2.2" fill="rgba(17,17,17,0.35)" stroke="none" stroke-width="0"></circle><circle cx="191.8053004790827" cy="430.2145" r="2.2" fill="rgba(17,17,17,0.35)" stroke="none" stroke-width="0"></circle><circle cx="182.5300910223601" cy="395.94539" r="2.2" fill="rgba(17,17,17,0.35)" stroke="none" stroke-width="0"></circle><circle cx="183.5248528126641" cy="470" r="2.2" fill="rgba(17,17,17,0.35)" stroke="none" stroke-width="0"></circle><circle cx="189.33137044624345" cy="280.48389749999996" r="2.2" fill="rgba(17,17,17,0.35)" stroke="none" stroke-width="0"></circle><circle cx="118.0539119462774" cy="470" r="2.2" fill="rgba(17,17,17,0.35)" stroke="none" stroke-width="0"></circle><circle cx="118.28849940561686" cy="433.73456500000003" r="2.2" fill="rgba(17,17,17,0.35)" stroke="none" stroke-width="0"></circle><circle cx="196.10579870968772" cy="355.922305" r="2.2" fill="rgba(17,17,17,0.35)" stroke="none" stroke-width="0"></circle><circle cx="135.5693816739347" cy="442.61075" r="2.2" fill="rgba(17,17,17,0.35)" stroke="none" stroke-width="0"></circle><circle cx="152.96036174233478" cy="372.0833725" r="2.2" fill="rgba(17,17,17,0.35)" stroke="none" stroke-width="0"></circle><circle cx="131.7655888597721" cy="397.46913" r="2.2" fill="rgba(17,17,17,0.35)" stroke="none" stroke-width="0"></circle><circle cx="112.75765432419038" cy="415.63780249999996" r="2.2" fill="rgba(17,17,17,0.35)" stroke="none" stroke-width="0"></circle><circle cx="168.76240842714702" cy="226.896495" r="3.2" fill="none" stroke="rgba(176,0,32,0.95)" stroke-width="1.5"></circle><circle cx="185.59619152000252" cy="424.4573525" r="2.2" fill="rgba(17,17,17,0.35)" stroke="none" stroke-width="0"></circle><circle cx="185.14389741075885" cy="439.1439125" r="2.2" fill="rgba(17,17,17,0.35)" stroke="none" stroke-width="0"></circle><circle cx="143.07490928538715" cy="438.20027" r="2.2" fill="rgba(17,17,17,0.35)" stroke="none" stroke-width="0"></circle><circle cx="117.488356171848" cy="377.480265" r="2.2" fill="rgba(17,17,17,0.35)" stroke="none" stroke-width="0"></circle><circle cx="174.41554431021936" cy="403.86489" r="2.2" fill="rgba(17,17,17,0.35)" stroke="none" stroke-width="0"></circle><circle cx="146.12033656336206" cy="470" r="2.2" fill="rgba(17,17,17,0.35)" stroke="none" stroke-width="0"></circle><circle cx="193.54779220284854" cy="437.931195" r="2.2" fill="rgba(17,17,17,0.35)" stroke="none" stroke-width="0"></circle><circle cx="191.83308725962692" cy="470" r="2.2" fill="rgba(17,17,17,0.35)" stroke="none" stroke-width="0"></circle><circle cx="198.60895148057745" cy="470" r="2.2" fill="rgba(17,17,17,0.35)" stroke="none" stroke-width="0"></circle><circle cx="137.41578523020797" cy="399.0336425" r="2.2" fill="rgba(17,17,17,0.35)" stroke="none" stroke-width="0"></circle><circle cx="136.63165779068026" cy="456.49419750000004" r="2.2" fill="rgba(17,17,17,0.35)" stroke="none" stroke-width="0"></circle><circle cx="176.90718063070673" cy="228.5615875" r="3.2" fill="none" stroke="rgba(176,0,32,0.95)" stroke-width="1.5"></circle><circle cx="180.61546003667758" cy="423.187295" r="2.2" fill="rgba(17,17,17,0.35)" stroke="none" stroke-width="0"></circle><circle cx="166.00237626071186" cy="342.5596175" r="2.2" fill="rgba(17,17,17,0.35)" stroke="none" stroke-width="0"></circle><circle cx="105.46359582893751" cy="435.40729500000003" r="2.2" fill="rgba(17,17,17,0.35)" stroke="none" stroke-width="0"></circle><circle cx="160.58218893181424" cy="304.03959249999997" r="2.2" fill="rgba(17,17,17,0.35)" stroke="none" stroke-width="0"></circle><circle cx="124.36740870739521" cy="470" r="2.2" fill="rgba(17,17,17,0.35)" stroke="none" stroke-width="0"></circle><circle cx="115.44037490909108" cy="424.1612525" r="2.2" fill="rgba(17,17,17,0.35)" stroke="none" stroke-width="0"></circle><circle cx="181.88967327868693" cy="388.1754675" r="2.2" fill="rgba(17,17,17,0.35)" stroke="none" stroke-width="0"></circle><circle cx="182.25119187220906" cy="470" r="2.2" fill="rgba(17,17,17,0.35)" stroke="none" stroke-width="0"></circle><circle cx="181.87385275909946" cy="445.79817249999996" r="2.2" fill="rgba(17,17,17,0.35)" stroke="none" stroke-width="0"></circle><circle cx="145.10737303485035" cy="438.6666275" r="2.2" fill="rgba(17,17,17,0.35)" stroke="none" stroke-width="0"></circle><circle cx="120.10339406645099" cy="438.99739" r="2.2" fill="rgba(17,17,17,0.35)" stroke="none" stroke-width="0"></circle><circle cx="168.603503550535" cy="407.99478" r="2.2" fill="rgba(17,17,17,0.35)" stroke="none" stroke-width="0"></circle><circle cx="142.88057589043441" cy="364.6188325" r="2.2" fill="rgba(17,17,17,0.35)" stroke="none" stroke-width="0"></circle><circle cx="131.42418647442076" cy="387.8321325" r="2.2" fill="rgba(17,17,17,0.35)" stroke="none" stroke-width="0"></circle><circle cx="104.95509125498737" cy="389.6580825" r="2.2" fill="rgba(17,17,17,0.35)" stroke="none" stroke-width="0"></circle><circle cx="147.27000338356905" cy="428.86219250000005" r="2.2" fill="rgba(17,17,17,0.35)" stroke="none" stroke-width="0"></circle><circle cx="180.1603149528694" cy="436.66666" r="2.2" fill="rgba(17,17,17,0.35)" stroke="none" stroke-width="0"></circle><circle cx="167.86361973983452" cy="303.6704075" r="2.2" fill="rgba(17,17,17,0.35)" stroke="none" stroke-width="0"></circle><circle cx="126.49563889730732" cy="257.2233625" r="3.2" fill="none" stroke="rgba(176,0,32,0.95)" stroke-width="1.5"></circle><circle cx="135.6701743083979" cy="443.62512749999996" r="2.2" fill="rgba(17,17,17,0.35)" stroke="none" stroke-width="0"></circle><circle cx="107.98865290556333" cy="470" r="2.2" fill="rgba(17,17,17,0.35)" stroke="none" stroke-width="0"></circle><circle cx="113.21342567554953" cy="437.931195" r="2.2" fill="rgba(17,17,17,0.35)" stroke="none" stroke-width="0"></circle><circle cx="140.6162385592816" cy="415.977025" r="2.2" fill="rgba(17,17,17,0.35)" stroke="none" stroke-width="0"></circle><circle cx="184.05196137159197" cy="403.92693" r="2.2" fill="rgba(17,17,17,0.35)" stroke="none" stroke-width="0"></circle><circle cx="138.30727576228196" cy="365.2229" r="2.2" fill="rgba(17,17,17,0.35)" stroke="none" stroke-width="0"></circle><circle cx="160.57970163998442" cy="470" r="2.2" fill="rgba(17,17,17,0.35)" stroke="none" stroke-width="0"></circle><circle cx="169.64874338552167" cy="470" r="2.2" fill="rgba(17,17,17,0.35)" stroke="none" stroke-width="0"></circle><circle cx="113.92139378888535" cy="470" r="2.2" fill="rgba(17,17,17,0.35)" stroke="none" stroke-width="0"></circle><circle cx="153.1792581944463" cy="267.413785" r="3.2" fill="none" stroke="rgba(176,0,32,0.95)" stroke-width="1.5"></circle><circle cx="160.6502800603555" cy="367.02018" r="2.2" fill="rgba(17,17,17,0.35)" stroke="none" stroke-width="0"></circle><circle cx="131.19193123261078" cy="383.7614625" r="2.2" fill="rgba(17,17,17,0.35)" stroke="none" stroke-width="0"></circle><circle cx="144.91729793640314" cy="349.28085250000004" r="2.2" fill="rgba(17,17,17,0.35)" stroke="none" stroke-width="0"></circle><circle cx="114.31238209391597" cy="381.4321425" r="2.2" fill="rgba(17,17,17,0.35)" stroke="none" stroke-width="0"></circle><circle cx="182.03301444918995" cy="355.365825" r="2.2" fill="rgba(17,17,17,0.35)" stroke="none" stroke-width="0"></circle><circle cx="138.86167958720267" cy="440.8436675" r="2.2" fill="rgba(17,17,17,0.35)" stroke="none" stroke-width="0"></circle><circle cx="108.32732045070429" cy="403.988735" r="2.2" fill="rgba(17,17,17,0.35)" stroke="none" stroke-width="0"></circle><circle cx="149.98296765839848" cy="358.700945" r="2.2" fill="rgba(17,17,17,0.35)" stroke="none" stroke-width="0"></circle><circle cx="139.52067553278863" cy="309.59041" r="2.2" fill="rgba(17,17,17,0.35)" stroke="none" stroke-width="0"></circle><circle cx="125.69059307787138" cy="297.67732" r="2.2" fill="rgba(17,17,17,0.35)" stroke="none" stroke-width="0"></circle><circle cx="159.77576772075093" cy="470" r="2.2" fill="rgba(17,17,17,0.35)" stroke="none" stroke-width="0"></circle><circle cx="175.59906630688488" cy="365.2229" r="2.2" fill="rgba(17,17,17,0.35)" stroke="none" stroke-width="0"></circle><circle cx="170.23265137307877" cy="325.828205" r="2.2" fill="rgba(17,17,17,0.35)" stroke="none" stroke-width="0"></circle><circle cx="150.64418893014528" cy="399.358765" r="2.2" fill="rgba(17,17,17,0.35)" stroke="none" stroke-width="0"></circle><circle cx="191.18490514275587" cy="387.8321325" r="2.2" fill="rgba(17,17,17,0.35)" stroke="none" stroke-width="0"></circle><circle cx="181.90158918969615" cy="434.44779" r="2.2" fill="rgba(17,17,17,0.35)" stroke="none" stroke-width="0"></circle><circle cx="124.6509985842554" cy="470" r="2.2" fill="rgba(17,17,17,0.35)" stroke="none" stroke-width="0"></circle><text x="151.47058823529414" y="500" text-anchor="middle" font-size="10.5" fill="rgba(0,0,0,0.65)">n=80</text><line x1="393.82352941176475" x2="393.82352941176475" y1="470" y2="291.96963999999997" stroke="#ad1f15" stroke-width="1.2"></line><line x1="358.8338235294118" x2="428.8132352941177" y1="470" y2="470" stroke="#ad1f15" stroke-width="1.2"></line><line x1="358.8338235294118" x2="428.8132352941177" y1="291.96963999999997" y2="291.96963999999997" stroke="#ad1f15" stroke-width="1.2"></line><rect x="343.8382352941177" y="390.76983812500004" width="99.97058823529412" height="68.14162812499995" fill="rgba(17,17,17,0.10)" stroke="#ad1f15" stroke-width="1.2"></rect><line x1="343.8382352941177" x2="443.8088235294118" y1="433.62529" y2="433.62529" stroke="#ad1f15" stroke-width="2"></line><circle cx="401.02666806362487" cy="462.619355" r="2.2" fill="rgba(17,17,17,0.35)" stroke="none" stroke-width="0"></circle><circle cx="425.09670253866904" cy="450.8006175" r="2.2" fill="rgba(17,17,17,0.35)" stroke="none" stroke-width="0"></circle><circle cx="400.7255912099551" cy="354.236415" r="2.2" fill="rgba(17,17,17,0.35)" stroke="none" stroke-width="0"></circle><circle cx="404.9653087175301" cy="434.9254275" r="2.2" fill="rgba(17,17,17,0.35)" stroke="none" stroke-width="0"></circle><circle cx="426.95477279914064" cy="428.4805525" r="2.2" fill="rgba(17,17,17,0.35)" stroke="none" stroke-width="0"></circle><circle cx="437.517820233473" cy="430.456785" r="2.2" fill="rgba(17,17,17,0.35)" stroke="none" stroke-width="0"></circle><circle cx="441.2293715015362" cy="452.41013250000003" r="2.2" fill="rgba(17,17,17,0.35)" stroke="none" stroke-width="0"></circle><circle cx="358.3384052144165" cy="434.75" r="2.2" fill="rgba(17,17,17,0.35)" stroke="none" stroke-width="0"></circle><circle cx="378.258893277113" cy="376.74600749999996" r="2.2" fill="rgba(17,17,17,0.35)" stroke="none" stroke-width="0"></circle><circle cx="364.14080198009106" cy="470" r="2.2" fill="rgba(17,17,17,0.35)" stroke="none" stroke-width="0"></circle><circle cx="362.34457941044377" cy="449.6888325" r="2.2" fill="rgba(17,17,17,0.35)" stroke="none" stroke-width="0"></circle><circle cx="422.36950154530217" cy="438.1571475" r="2.2" fill="rgba(17,17,17,0.35)" stroke="none" stroke-width="0"></circle><circle cx="367.396870353126" cy="196.74423249999998" r="3.2" fill="none" stroke="rgba(176,0,32,0.95)" stroke-width="1.5"></circle><circle cx="396.1147750860375" cy="441.140355" r="2.2" fill="rgba(17,17,17,0.35)" stroke="none" stroke-width="0"></circle><circle cx="393.257573115333" cy="449.31342" r="2.2" fill="rgba(17,17,17,0.35)" stroke="none" stroke-width="0"></circle><circle cx="376.8891533815809" cy="470" r="2.2" fill="rgba(17,17,17,0.35)" stroke="none" stroke-width="0"></circle><circle cx="384.48732418886783" cy="291.96963999999997" r="2.2" fill="rgba(17,17,17,0.35)" stroke="none" stroke-width="0"></circle><circle cx="354.81580898512044" cy="426.8543525" r="2.2" fill="rgba(17,17,17,0.35)" stroke="none" stroke-width="0"></circle><circle cx="411.7246991299826" cy="377.480265" r="2.2" fill="rgba(17,17,17,0.35)" stroke="none" stroke-width="0"></circle><circle cx="368.3310861656977" cy="397.9141025" r="2.2" fill="rgba(17,17,17,0.35)" stroke="none" stroke-width="0"></circle><circle cx="418.3228429178468" cy="398.10316" r="2.2" fill="rgba(17,17,17,0.35)" stroke="none" stroke-width="0"></circle><circle cx="380.0144402314735" cy="438.1571475" r="2.2" fill="rgba(17,17,17,0.35)" stroke="none" stroke-width="0"></circle><circle cx="381.11840990809696" cy="470" r="2.2" fill="rgba(17,17,17,0.35)" stroke="none" stroke-width="0"></circle><circle cx="373.9133877878663" cy="272.52104" r="3.2" fill="none" stroke="rgba(176,0,32,0.95)" stroke-width="1.5"></circle><circle cx="430.2063995196029" cy="438.07066749999996" r="2.2" fill="rgba(17,17,17,0.35)" stroke="none" stroke-width="0"></circle><circle cx="394.79232130944183" cy="435.3392625" r="2.2" fill="rgba(17,17,17,0.35)" stroke="none" stroke-width="0"></circle><circle cx="440.569596779138" cy="335.79949" r="2.2" fill="rgba(17,17,17,0.35)" stroke="none" stroke-width="0"></circle><circle cx="396.3070947705508" cy="444.96004500000004" r="2.2" fill="rgba(17,17,17,0.35)" stroke="none" stroke-width="0"></circle><circle cx="366.629971529061" cy="470" r="2.2" fill="rgba(17,17,17,0.35)" stroke="none" stroke-width="0"></circle><circle cx="414.13710864715057" cy="340.4996075" r="2.2" fill="rgba(17,17,17,0.35)" stroke="none" stroke-width="0"></circle><circle cx="427.3469246589531" cy="421.21588" r="2.2" fill="rgba(17,17,17,0.35)" stroke="none" stroke-width="0"></circle><circle cx="364.1476055029291" cy="408.266205" r="2.2" fill="rgba(17,17,17,0.35)" stroke="none" stroke-width="0"></circle><circle cx="407.79276782217994" cy="470" r="2.2" fill="rgba(17,17,17,0.35)" stroke="none" stroke-width="0"></circle><circle cx="396.8614297374406" cy="470" r="2.2" fill="rgba(17,17,17,0.35)" stroke="none" stroke-width="0"></circle><circle cx="349.6864377566662" cy="308.598945" r="2.2" fill="rgba(17,17,17,0.35)" stroke="none" stroke-width="0"></circle><circle cx="346.71356504052466" cy="432.31963" r="2.2" fill="rgba(17,17,17,0.35)" stroke="none" stroke-width="0"></circle><circle cx="403.0623377580994" cy="439.9231725" r="2.2" fill="rgba(17,17,17,0.35)" stroke="none" stroke-width="0"></circle><circle cx="363.00114827628033" cy="338.27357" r="2.2" fill="rgba(17,17,17,0.35)" stroke="none" stroke-width="0"></circle><circle cx="436.24567682318843" cy="401.51536000000004" r="2.2" fill="rgba(17,17,17,0.35)" stroke="none" stroke-width="0"></circle><circle cx="418.0219867238724" cy="427.960615" r="2.2" fill="rgba(17,17,17,0.35)" stroke="none" stroke-width="0"></circle><circle cx="383.0305109471193" cy="355.1791175" r="2.2" fill="rgba(17,17,17,0.35)" stroke="none" stroke-width="0"></circle><circle cx="402.62067235251106" cy="470" r="2.2" fill="rgba(17,17,17,0.35)" stroke="none" stroke-width="0"></circle><circle cx="387.75494375089426" cy="402.2766425" r="2.2" fill="rgba(17,17,17,0.35)" stroke="none" stroke-width="0"></circle><circle cx="401.1034400140134" cy="467.1923375" r="2.2" fill="rgba(17,17,17,0.35)" stroke="none" stroke-width="0"></circle><circle cx="420.1623456124727" cy="385.264405" r="2.2" fill="rgba(17,17,17,0.35)" stroke="none" stroke-width="0"></circle><circle cx="429.75629095630245" cy="405.79236000000003" r="2.2" fill="rgba(17,17,17,0.35)" stroke="none" stroke-width="0"></circle><circle cx="382.84008306735336" cy="325.828205" r="2.2" fill="rgba(17,17,17,0.35)" stroke="none" stroke-width="0"></circle><circle cx="365.8038578719675" cy="335.7143025" r="2.2" fill="rgba(17,17,17,0.35)" stroke="none" stroke-width="0"></circle><circle cx="383.809500989345" cy="470" r="2.2" fill="rgba(17,17,17,0.35)" stroke="none" stroke-width="0"></circle><circle cx="371.77027415789064" cy="379.055705" r="2.2" fill="rgba(17,17,17,0.35)" stroke="none" stroke-width="0"></circle><circle cx="374.004216793497" cy="452.553835" r="2.2" fill="rgba(17,17,17,0.35)" stroke="none" stroke-width="0"></circle><circle cx="351.10263017766897" cy="399.85073750000004" r="2.2" fill="rgba(17,17,17,0.35)" stroke="none" stroke-width="0"></circle><circle cx="426.5244921203546" cy="442.514635" r="2.2" fill="rgba(17,17,17,0.35)" stroke="none" stroke-width="0"></circle><circle cx="417.9798608885777" cy="430.6232825" r="2.2" fill="rgba(17,17,17,0.35)" stroke="none" stroke-width="0"></circle><circle cx="378.6416445562764" cy="410.4560525" r="2.2" fill="rgba(17,17,17,0.35)" stroke="none" stroke-width="0"></circle><circle cx="428.8010064658018" cy="454.90689" r="2.2" fill="rgba(17,17,17,0.35)" stroke="none" stroke-width="0"></circle><circle cx="407.8873835993794" cy="446.54688250000004" r="2.2" fill="rgba(17,17,17,0.35)" stroke="none" stroke-width="0"></circle><circle cx="366.07672338690577" cy="433.28125" r="2.2" fill="rgba(17,17,17,0.35)" stroke="none" stroke-width="0"></circle><circle cx="438.5871917568103" cy="415.727455" r="2.2" fill="rgba(17,17,17,0.35)" stroke="none" stroke-width="0"></circle><circle cx="359.28755138957644" cy="363.1818075" r="2.2" fill="rgba(17,17,17,0.35)" stroke="none" stroke-width="0"></circle><circle cx="411.22518565915493" cy="436.409335" r="2.2" fill="rgba(17,17,17,0.35)" stroke="none" stroke-width="0"></circle><circle cx="414.38399471690275" cy="445.43122" r="2.2" fill="rgba(17,17,17,0.35)" stroke="none" stroke-width="0"></circle><circle cx="396.77646080675123" cy="470" r="2.2" fill="rgba(17,17,17,0.35)" stroke="none" stroke-width="0"></circle><circle cx="405.72796545348285" cy="441.7378425" r="2.2" fill="rgba(17,17,17,0.35)" stroke="none" stroke-width="0"></circle><circle cx="408.0667077789056" cy="347.71998249999996" r="2.2" fill="rgba(17,17,17,0.35)" stroke="none" stroke-width="0"></circle><circle cx="418.5725635768709" cy="448.5974925" r="2.2" fill="rgba(17,17,17,0.35)" stroke="none" stroke-width="0"></circle><circle cx="431.7964092024202" cy="404.59245" r="2.2" fill="rgba(17,17,17,0.35)" stroke="none" stroke-width="0"></circle><circle cx="375.5416827570391" cy="450.6584425" r="2.2" fill="rgba(17,17,17,0.35)" stroke="none" stroke-width="0"></circle><circle cx="370.64775139904714" cy="426.8332025" r="2.2" fill="rgba(17,17,17,0.35)" stroke="none" stroke-width="0"></circle><circle cx="402.87264776930783" cy="436.3965275" r="2.2" fill="rgba(17,17,17,0.35)" stroke="none" stroke-width="0"></circle><circle cx="354.1972599904351" cy="307.37024749999995" r="2.2" fill="rgba(17,17,17,0.35)" stroke="none" stroke-width="0"></circle><circle cx="410.8516079104602" cy="384.5454225" r="2.2" fill="rgba(17,17,17,0.35)" stroke="none" stroke-width="0"></circle><circle cx="419.75626660780097" cy="351.86996500000004" r="2.2" fill="rgba(17,17,17,0.35)" stroke="none" stroke-width="0"></circle><circle cx="348.30619349553535" cy="338.4701475" r="2.2" fill="rgba(17,17,17,0.35)" stroke="none" stroke-width="0"></circle><circle cx="429.1002517046921" cy="453.14204" r="2.2" fill="rgba(17,17,17,0.35)" stroke="none" stroke-width="0"></circle><circle cx="403.4624072300805" cy="134.28569749999997" r="3.2" fill="none" stroke="rgba(176,0,32,0.95)" stroke-width="1.5"></circle><circle cx="417.4543019891457" cy="429.01165249999997" r="2.2" fill="rgba(17,17,17,0.35)" stroke="none" stroke-width="0"></circle><circle cx="401.1852796634016" cy="333.76815" r="2.2" fill="rgba(17,17,17,0.35)" stroke="none" stroke-width="0"></circle><circle cx="405.13889417499684" cy="390.338995" r="2.2" fill="rgba(17,17,17,0.35)" stroke="none" stroke-width="0"></circle><circle cx="390.8866578810438" cy="456.5097075" r="2.2" fill="rgba(17,17,17,0.35)" stroke="none" stroke-width="0"></circle><circle cx="351.43234666525393" cy="455.4848725" r="2.2" fill="rgba(17,17,17,0.35)" stroke="none" stroke-width="0"></circle><circle cx="372.0347328679116" cy="470" r="2.2" fill="rgba(17,17,17,0.35)" stroke="none" stroke-width="0"></circle><circle cx="373.62865702144" cy="421.0416275" r="2.2" fill="rgba(17,17,17,0.35)" stroke="none" stroke-width="0"></circle><circle cx="385.5498316456006" cy="435.92558749999995" r="2.2" fill="rgba(17,17,17,0.35)" stroke="none" stroke-width="0"></circle><circle cx="405.2869580688599" cy="447.40380999999996" r="2.2" fill="rgba(17,17,17,0.35)" stroke="none" stroke-width="0"></circle><circle cx="412.8552329259083" cy="447.1400225" r="2.2" fill="rgba(17,17,17,0.35)" stroke="none" stroke-width="0"></circle><circle cx="383.1968477590236" cy="470" r="2.2" fill="rgba(17,17,17,0.35)" stroke="none" stroke-width="0"></circle><circle cx="416.4243454528528" cy="470" r="2.2" fill="rgba(17,17,17,0.35)" stroke="none" stroke-width="0"></circle><circle cx="436.2675187277159" cy="470" r="2.2" fill="rgba(17,17,17,0.35)" stroke="none" stroke-width="0"></circle><circle cx="411.07108293366383" cy="470" r="2.2" fill="rgba(17,17,17,0.35)" stroke="none" stroke-width="0"></circle><circle cx="390.0645123614697" cy="470" r="2.2" fill="rgba(17,17,17,0.35)" stroke="none" stroke-width="0"></circle><circle cx="438.1546215153252" cy="470" r="2.2" fill="rgba(17,17,17,0.35)" stroke="none" stroke-width="0"></circle><circle cx="346.42684475463057" cy="470" r="2.2" fill="rgba(17,17,17,0.35)" stroke="none" stroke-width="0"></circle><circle cx="358.4020733753679" cy="419.6248125" r="2.2" fill="rgba(17,17,17,0.35)" stroke="none" stroke-width="0"></circle><circle cx="363.9130654304748" cy="422.620945" r="2.2" fill="rgba(17,17,17,0.35)" stroke="none" stroke-width="0"></circle><circle cx="409.4269800489748" cy="374.47156" r="2.2" fill="rgba(17,17,17,0.35)" stroke="none" stroke-width="0"></circle><circle cx="423.2029386542262" cy="459.2300675" r="2.2" fill="rgba(17,17,17,0.35)" stroke="none" stroke-width="0"></circle><circle cx="349.85771142846625" cy="447.6403375" r="2.2" fill="rgba(17,17,17,0.35)" stroke="none" stroke-width="0"></circle><circle cx="406.73790022368917" cy="429.48271" r="2.2" fill="rgba(17,17,17,0.35)" stroke="none" stroke-width="0"></circle><circle cx="355.5981729824151" cy="263.22878749999995" r="3.2" fill="none" stroke="rgba(176,0,32,0.95)" stroke-width="1.5"></circle><circle cx="366.9611618969278" cy="449.14821500000005" r="2.2" fill="rgba(17,17,17,0.35)" stroke="none" stroke-width="0"></circle><circle cx="405.21426621110027" cy="449.6888325" r="2.2" fill="rgba(17,17,17,0.35)" stroke="none" stroke-width="0"></circle><circle cx="426.97935502775505" cy="274.77668750000004" r="3.2" fill="none" stroke="rgba(176,0,32,0.95)" stroke-width="1.5"></circle><circle cx="418.8979368342005" cy="470" r="2.2" fill="rgba(17,17,17,0.35)" stroke="none" stroke-width="0"></circle><circle cx="438.91666819212026" cy="380.133885" r="2.2" fill="rgba(17,17,17,0.35)" stroke="none" stroke-width="0"></circle><circle cx="366.1677098107518" cy="426.64203000000003" r="2.2" fill="rgba(17,17,17,0.35)" stroke="none" stroke-width="0"></circle><circle cx="368.0593614076511" cy="438.83289" r="2.2" fill="rgba(17,17,17,0.35)" stroke="none" stroke-width="0"></circle><circle cx="378.7129509612641" cy="470" r="2.2" fill="rgba(17,17,17,0.35)" stroke="none" stroke-width="0"></circle><circle cx="384.82973459034014" cy="422.6008525" r="2.2" fill="rgba(17,17,17,0.35)" stroke="none" stroke-width="0"></circle><circle cx="391.1195145139485" cy="431.0281875" r="2.2" fill="rgba(17,17,17,0.35)" stroke="none" stroke-width="0"></circle><circle cx="351.94536814029294" cy="418.54017000000005" r="2.2" fill="rgba(17,17,17,0.35)" stroke="none" stroke-width="0"></circle><circle cx="388.8931532713838" cy="455.5116625" r="2.2" fill="rgba(17,17,17,0.35)" stroke="none" stroke-width="0"></circle><circle cx="399.8585968007882" cy="395.25449000000003" r="2.2" fill="rgba(17,17,17,0.35)" stroke="none" stroke-width="0"></circle><circle cx="410.2539637850033" cy="425.0669425" r="2.2" fill="rgba(17,17,17,0.35)" stroke="none" stroke-width="0"></circle><circle cx="421.50044776357834" cy="264.51506" r="3.2" fill="none" stroke="rgba(176,0,32,0.95)" stroke-width="1.5"></circle><circle cx="369.43340433308526" cy="458.68381" r="2.2" fill="rgba(17,17,17,0.35)" stroke="none" stroke-width="0"></circle><circle cx="371.7096227039837" cy="470" r="2.2" fill="rgba(17,17,17,0.35)" stroke="none" stroke-width="0"></circle><circle cx="368.9244061217928" cy="458.85195250000004" r="2.2" fill="rgba(17,17,17,0.35)" stroke="none" stroke-width="0"></circle><circle cx="430.1395163917788" cy="441.00558249999995" r="2.2" fill="rgba(17,17,17,0.35)" stroke="none" stroke-width="0"></circle><circle cx="378.37086262697915" cy="470" r="2.2" fill="rgba(17,17,17,0.35)" stroke="none" stroke-width="0"></circle><circle cx="351.85670906924713" cy="336.8376025" r="2.2" fill="rgba(17,17,17,0.35)" stroke="none" stroke-width="0"></circle><circle cx="365.38461749715435" cy="444.61107" r="2.2" fill="rgba(17,17,17,0.35)" stroke="none" stroke-width="0"></circle><circle cx="430.236634342457" cy="446.960835" r="2.2" fill="rgba(17,17,17,0.35)" stroke="none" stroke-width="0"></circle><circle cx="399.7245096056853" cy="437.17872500000004" r="2.2" fill="rgba(17,17,17,0.35)" stroke="none" stroke-width="0"></circle><circle cx="364.10533817035105" cy="424.01179249999996" r="2.2" fill="rgba(17,17,17,0.35)" stroke="none" stroke-width="0"></circle><circle cx="393.0073204539429" cy="418.46497" r="2.2" fill="rgba(17,17,17,0.35)" stroke="none" stroke-width="0"></circle><circle cx="346.4484822299685" cy="278.31978250000003" r="3.2" fill="none" stroke="rgba(176,0,32,0.95)" stroke-width="1.5"></circle><circle cx="401.5404471317916" cy="415.727455" r="2.2" fill="rgba(17,17,17,0.35)" stroke="none" stroke-width="0"></circle><circle cx="433.4606947651712" cy="403.988735" r="2.2" fill="rgba(17,17,17,0.35)" stroke="none" stroke-width="0"></circle><circle cx="411.8822737242746" cy="306.35093500000005" r="2.2" fill="rgba(17,17,17,0.35)" stroke="none" stroke-width="0"></circle><circle cx="397.03797646615084" cy="402.51775250000003" r="2.2" fill="rgba(17,17,17,0.35)" stroke="none" stroke-width="0"></circle><circle cx="403.5400949215216" cy="407.7648325" r="2.2" fill="rgba(17,17,17,0.35)" stroke="none" stroke-width="0"></circle><circle cx="437.02975092759385" cy="463.783075" r="2.2" fill="rgba(17,17,17,0.35)" stroke="none" stroke-width="0"></circle><circle cx="416.97827624919324" cy="470" r="2.2" fill="rgba(17,17,17,0.35)" stroke="none" stroke-width="0"></circle><circle cx="350.9099916986043" cy="340.949985" r="2.2" fill="rgba(17,17,17,0.35)" stroke="none" stroke-width="0"></circle><circle cx="432.1260543111599" cy="436.274445" r="2.2" fill="rgba(17,17,17,0.35)" stroke="none" stroke-width="0"></circle><circle cx="364.0251297973477" cy="470" r="2.2" fill="rgba(17,17,17,0.35)" stroke="none" stroke-width="0"></circle><circle cx="367.0222859813918" cy="449.240335" r="2.2" fill="rgba(17,17,17,0.35)" stroke="none" stroke-width="0"></circle><circle cx="373.297808268127" cy="470" r="2.2" fill="rgba(17,17,17,0.35)" stroke="none" stroke-width="0"></circle><circle cx="355.8114380018591" cy="456.968545" r="2.2" fill="rgba(17,17,17,0.35)" stroke="none" stroke-width="0"></circle><circle cx="363.4462041991294" cy="470" r="2.2" fill="rgba(17,17,17,0.35)" stroke="none" stroke-width="0"></circle><circle cx="380.46245881864763" cy="470" r="2.2" fill="rgba(17,17,17,0.35)" stroke="none" stroke-width="0"></circle><circle cx="423.292377850941" cy="396.2552375" r="2.2" fill="rgba(17,17,17,0.35)" stroke="none" stroke-width="0"></circle><circle cx="406.383632597532" cy="470" r="2.2" fill="rgba(17,17,17,0.35)" stroke="none" stroke-width="0"></circle><circle cx="363.5197228397339" cy="417.15143750000004" r="2.2" fill="rgba(17,17,17,0.35)" stroke="none" stroke-width="0"></circle><circle cx="389.99553218154955" cy="124.41181999999999" r="3.2" fill="none" stroke="rgba(176,0,32,0.95)" stroke-width="1.5"></circle><circle cx="354.5602240719104" cy="470" r="2.2" fill="rgba(17,17,17,0.35)" stroke="none" stroke-width="0"></circle><circle cx="350.30445890611776" cy="470" r="2.2" fill="rgba(17,17,17,0.35)" stroke="none" stroke-width="0"></circle><circle cx="394.22721171913236" cy="350.2765475" r="2.2" fill="rgba(17,17,17,0.35)" stroke="none" stroke-width="0"></circle><circle cx="407.2496322137965" cy="438.07066749999996" r="2.2" fill="rgba(17,17,17,0.35)" stroke="none" stroke-width="0"></circle><circle cx="427.8920981687477" cy="470" r="2.2" fill="rgba(17,17,17,0.35)" stroke="none" stroke-width="0"></circle><circle cx="420.2833294603864" cy="404.72217" r="2.2" fill="rgba(17,17,17,0.35)" stroke="none" stroke-width="0"></circle><circle cx="403.0315682793906" cy="470" r="2.2" fill="rgba(17,17,17,0.35)" stroke="none" stroke-width="0"></circle><circle cx="395.3190932954443" cy="470" r="2.2" fill="rgba(17,17,17,0.35)" stroke="none" stroke-width="0"></circle><circle cx="396.53481478008774" cy="378.6314125" r="2.2" fill="rgba(17,17,17,0.35)" stroke="none" stroke-width="0"></circle><circle cx="403.13514316306174" cy="357.738855" r="2.2" fill="rgba(17,17,17,0.35)" stroke="none" stroke-width="0"></circle><circle cx="408.3807691255845" cy="334.42309500000005" r="2.2" fill="rgba(17,17,17,0.35)" stroke="none" stroke-width="0"></circle><circle cx="356.917235313029" cy="470" r="2.2" fill="rgba(17,17,17,0.35)" stroke="none" stroke-width="0"></circle><circle cx="430.1282232103356" cy="306.35093500000005" r="2.2" fill="rgba(17,17,17,0.35)" stroke="none" stroke-width="0"></circle><circle cx="368.02922606850973" cy="470" r="2.2" fill="rgba(17,17,17,0.35)" stroke="none" stroke-width="0"></circle><circle cx="434.07410527904665" cy="389.0851525" r="2.2" fill="rgba(17,17,17,0.35)" stroke="none" stroke-width="0"></circle><circle cx="406.1463651588605" cy="433.37665999999996" r="2.2" fill="rgba(17,17,17,0.35)" stroke="none" stroke-width="0"></circle><circle cx="411.7512089633291" cy="412.75270750000004" r="2.2" fill="rgba(17,17,17,0.35)" stroke="none" stroke-width="0"></circle><circle cx="350.0727760218139" cy="90.96779500000001" r="3.2" fill="none" stroke="rgba(176,0,32,0.95)" stroke-width="1.5"></circle><circle cx="418.16526275122857" cy="470" r="2.2" fill="rgba(17,17,17,0.35)" stroke="none" stroke-width="0"></circle><circle cx="396.8818341587058" cy="435.5761425" r="2.2" fill="rgba(17,17,17,0.35)" stroke="none" stroke-width="0"></circle><circle cx="393.5934715239225" cy="277.6196" r="3.2" fill="none" stroke="rgba(176,0,32,0.95)" stroke-width="1.5"></circle><circle cx="366.92875904115573" cy="470" r="2.2" fill="rgba(17,17,17,0.35)" stroke="none" stroke-width="0"></circle><circle cx="346.7877313534887" cy="429.05924000000005" r="2.2" fill="rgba(17,17,17,0.35)" stroke="none" stroke-width="0"></circle><circle cx="372.610184253414" cy="451.2525225" r="2.2" fill="rgba(17,17,17,0.35)" stroke="none" stroke-width="0"></circle><circle cx="431.39843505776753" cy="470" r="2.2" fill="rgba(17,17,17,0.35)" stroke="none" stroke-width="0"></circle><circle cx="382.4311593238155" cy="404.3575675" r="2.2" fill="rgba(17,17,17,0.35)" stroke="none" stroke-width="0"></circle><circle cx="398.76122053492486" cy="396.888915" r="2.2" fill="rgba(17,17,17,0.35)" stroke="none" stroke-width="0"></circle><circle cx="415.8546539067572" cy="314.628105" r="2.2" fill="rgba(17,17,17,0.35)" stroke="none" stroke-width="0"></circle><circle cx="439.4198543345039" cy="431.4753925" r="2.2" fill="rgba(17,17,17,0.35)" stroke="none" stroke-width="0"></circle><circle cx="392.0507650308188" cy="470" r="2.2" fill="rgba(17,17,17,0.35)" stroke="none" stroke-width="0"></circle><circle cx="414.9819147388441" cy="390.9134525" r="2.2" fill="rgba(17,17,17,0.35)" stroke="none" stroke-width="0"></circle><circle cx="427.59073699376694" cy="452.6951875" r="2.2" fill="rgba(17,17,17,0.35)" stroke="none" stroke-width="0"></circle><circle cx="388.7484586668722" cy="470" r="2.2" fill="rgba(17,17,17,0.35)" stroke="none" stroke-width="0"></circle><circle cx="417.13286456311096" cy="375.6516125" r="2.2" fill="rgba(17,17,17,0.35)" stroke="none" stroke-width="0"></circle><circle cx="416.4143478814777" cy="378.203125" r="2.2" fill="rgba(17,17,17,0.35)" stroke="none" stroke-width="0"></circle><circle cx="424.37142165005486" cy="470" r="2.2" fill="rgba(17,17,17,0.35)" stroke="none" stroke-width="0"></circle><circle cx="402.0919462711147" cy="371.9198125" r="2.2" fill="rgba(17,17,17,0.35)" stroke="none" stroke-width="0"></circle><circle cx="365.53092425082" cy="330.78200499999997" r="2.2" fill="rgba(17,17,17,0.35)" stroke="none" stroke-width="0"></circle><circle cx="438.09934196078143" cy="404.11211" r="2.2" fill="rgba(17,17,17,0.35)" stroke="none" stroke-width="0"></circle><circle cx="437.7173914160491" cy="449.6888325" r="2.2" fill="rgba(17,17,17,0.35)" stroke="none" stroke-width="0"></circle><circle cx="391.28295939911317" cy="208.88891499999997" r="3.2" fill="none" stroke="rgba(176,0,32,0.95)" stroke-width="1.5"></circle><circle cx="390.9605084067437" cy="376.1251375" r="2.2" fill="rgba(17,17,17,0.35)" stroke="none" stroke-width="0"></circle><circle cx="413.05897983726743" cy="388.40283" r="2.2" fill="rgba(17,17,17,0.35)" stroke="none" stroke-width="0"></circle><circle cx="399.19689151059555" cy="446.8244175" r="2.2" fill="rgba(17,17,17,0.35)" stroke="none" stroke-width="0"></circle><circle cx="425.49165172835006" cy="225.2083725" r="3.2" fill="none" stroke="rgba(176,0,32,0.95)" stroke-width="1.5"></circle><circle cx="381.2107952069451" cy="393.336185" r="2.2" fill="rgba(17,17,17,0.35)" stroke="none" stroke-width="0"></circle><circle cx="361.0274861453225" cy="362.20185749999996" r="2.2" fill="rgba(17,17,17,0.35)" stroke="none" stroke-width="0"></circle><circle cx="377.1051428262922" cy="458.25" r="2.2" fill="rgba(17,17,17,0.35)" stroke="none" stroke-width="0"></circle><circle cx="349.2186503251005" cy="453.40394749999996" r="2.2" fill="rgba(17,17,17,0.35)" stroke="none" stroke-width="0"></circle><circle cx="412.9391527777394" cy="465.5492175" r="2.2" fill="rgba(17,17,17,0.35)" stroke="none" stroke-width="0"></circle><circle cx="421.0700741021268" cy="454.6149025" r="2.2" fill="rgba(17,17,17,0.35)" stroke="none" stroke-width="0"></circle><circle cx="440.97955215484603" cy="465.1001325" r="2.2" fill="rgba(17,17,17,0.35)" stroke="none" stroke-width="0"></circle><circle cx="369.33772342342115" cy="421.3182225" r="2.2" fill="rgba(17,17,17,0.35)" stroke="none" stroke-width="0"></circle><circle cx="364.2602245373837" cy="433.87392" r="2.2" fill="rgba(17,17,17,0.35)" stroke="none" stroke-width="0"></circle><circle cx="357.7351890059887" cy="459.0900075" r="2.2" fill="rgba(17,17,17,0.35)" stroke="none" stroke-width="0"></circle><circle cx="402.5548037639676" cy="470" r="2.2" fill="rgba(17,17,17,0.35)" stroke="none" stroke-width="0"></circle><circle cx="411.0151007132078" cy="470" r="2.2" fill="rgba(17,17,17,0.35)" stroke="none" stroke-width="0"></circle><circle cx="432.20716613071824" cy="421.942735" r="2.2" fill="rgba(17,17,17,0.35)" stroke="none" stroke-width="0"></circle><circle cx="346.8541505630437" cy="430.48204749999996" r="2.2" fill="rgba(17,17,17,0.35)" stroke="none" stroke-width="0"></circle><circle cx="352.7353640132512" cy="426.07473999999996" r="2.2" fill="rgba(17,17,17,0.35)" stroke="none" stroke-width="0"></circle><circle cx="391.28386994375035" cy="380.236815" r="2.2" fill="rgba(17,17,17,0.35)" stroke="none" stroke-width="0"></circle><circle cx="360.0909547216379" cy="470" r="2.2" fill="rgba(17,17,17,0.35)" stroke="none" stroke-width="0"></circle><circle cx="424.1353473967887" cy="431.8506875" r="2.2" fill="rgba(17,17,17,0.35)" stroke="none" stroke-width="0"></circle><circle cx="435.86562312483204" cy="345.88028499999996" r="2.2" fill="rgba(17,17,17,0.35)" stroke="none" stroke-width="0"></circle><circle cx="363.0318307647855" cy="456.54061" r="2.2" fill="rgba(17,17,17,0.35)" stroke="none" stroke-width="0"></circle><circle cx="399.2070364611539" cy="470" r="2.2" fill="rgba(17,17,17,0.35)" stroke="none" stroke-width="0"></circle><circle cx="409.04227095953337" cy="430.34234000000004" r="2.2" fill="rgba(17,17,17,0.35)" stroke="none" stroke-width="0"></circle><circle cx="351.0653879113725" cy="433.25258" r="2.2" fill="rgba(17,17,17,0.35)" stroke="none" stroke-width="0"></circle><circle cx="424.21606829112864" cy="458.6874525" r="2.2" fill="rgba(17,17,17,0.35)" stroke="none" stroke-width="0"></circle><circle cx="356.5637118577694" cy="470" r="2.2" fill="rgba(17,17,17,0.35)" stroke="none" stroke-width="0"></circle><circle cx="372.980972455807" cy="470" r="2.2" fill="rgba(17,17,17,0.35)" stroke="none" stroke-width="0"></circle><circle cx="371.4999031655388" cy="470" r="2.2" fill="rgba(17,17,17,0.35)" stroke="none" stroke-width="0"></circle><circle cx="434.0872656320174" cy="470" r="2.2" fill="rgba(17,17,17,0.35)" stroke="none" stroke-width="0"></circle><circle cx="438.1472755309534" cy="36.27518749999999" r="3.2" fill="none" stroke="rgba(176,0,32,0.95)" stroke-width="1.5"></circle><text x="393.82352941176475" y="500" text-anchor="middle" font-size="10.5" fill="rgba(0,0,0,0.65)">n=220</text><line x1="636.1764705882352" x2="636.1764705882352" y1="470" y2="323.354125" stroke="#ad1f15" stroke-width="1.2"></line><line x1="601.1867647058823" x2="671.1661764705882" y1="470" y2="470" stroke="#ad1f15" stroke-width="1.2"></line><line x1="601.1867647058823" x2="671.1661764705882" y1="323.354125" y2="323.354125" stroke="#ad1f15" stroke-width="1.2"></line><rect x="586.1911764705882" y="385.099875625" width="99.97058823529412" height="84.90012437500002" fill="rgba(17,17,17,0.10)" stroke="#ad1f15" stroke-width="1.2"></rect><line x1="586.1911764705882" x2="686.1617647058823" y1="432.40699125000003" y2="432.40699125000003" stroke="#ad1f15" stroke-width="2"></line><circle cx="598.486327931631" cy="330.11906999999997" r="2.2" fill="rgba(17,17,17,0.35)" stroke="none" stroke-width="0"></circle><circle cx="638.6071631067015" cy="447.5421075" r="2.2" fill="rgba(17,17,17,0.35)" stroke="none" stroke-width="0"></circle><circle cx="633.4709177504982" cy="415.500915" r="2.2" fill="rgba(17,17,17,0.35)" stroke="none" stroke-width="0"></circle><circle cx="616.1100401843172" cy="470" r="2.2" fill="rgba(17,17,17,0.35)" stroke="none" stroke-width="0"></circle><circle cx="611.752992992301" cy="470" r="2.2" fill="rgba(17,17,17,0.35)" stroke="none" stroke-width="0"></circle><circle cx="640.8059090725395" cy="376.74600749999996" r="2.2" fill="rgba(17,17,17,0.35)" stroke="none" stroke-width="0"></circle><circle cx="655.384988302747" cy="470" r="2.2" fill="rgba(17,17,17,0.35)" stroke="none" stroke-width="0"></circle><circle cx="591.187355175361" cy="470" r="2.2" fill="rgba(17,17,17,0.35)" stroke="none" stroke-width="0"></circle><circle cx="681.40656759421" cy="323.354125" r="2.2" fill="rgba(17,17,17,0.35)" stroke="none" stroke-width="0"></circle><circle cx="622.5115177184394" cy="401.55343" r="2.2" fill="rgba(17,17,17,0.35)" stroke="none" stroke-width="0"></circle><circle cx="598.9639412317424" cy="421.0416275" r="2.2" fill="rgba(17,17,17,0.35)" stroke="none" stroke-width="0"></circle><circle cx="641.4909014677515" cy="443.772355" r="2.2" fill="rgba(17,17,17,0.35)" stroke="none" stroke-width="0"></circle><circle cx="616.1214019805549" cy="421.0416275" r="2.2" fill="rgba(17,17,17,0.35)" stroke="none" stroke-width="0"></circle><circle cx="592.7122034464777" cy="470" r="2.2" fill="rgba(17,17,17,0.35)" stroke="none" stroke-width="0"></circle><circle cx="638.7281787964793" cy="470" r="2.2" fill="rgba(17,17,17,0.35)" stroke="none" stroke-width="0"></circle><circle cx="621.1729076232651" cy="470" r="2.2" fill="rgba(17,17,17,0.35)" stroke="none" stroke-width="0"></circle><circle cx="639.019311789807" cy="344.19698" r="2.2" fill="rgba(17,17,17,0.35)" stroke="none" stroke-width="0"></circle><circle cx="652.3025723877678" cy="379.6153575" r="2.2" fill="rgba(17,17,17,0.35)" stroke="none" stroke-width="0"></circle><text x="636.1764705882352" y="500" text-anchor="middle" font-size="10.5" fill="rgba(0,0,0,0.65)">n=18</text><line x1="878.5294117647059" x2="878.5294117647059" y1="470" y2="470" stroke="#ad1f15" stroke-width="1.2"></line><line x1="843.5397058823529" x2="913.5191176470588" y1="470" y2="470" stroke="#ad1f15" stroke-width="1.2"></line><line x1="843.5397058823529" x2="913.5191176470588" y1="470" y2="470" stroke="#ad1f15" stroke-width="1.2"></line><rect x="828.5441176470588" y="462.092866875" width="99.97058823529412" height="7.907133124999973" fill="rgba(17,17,17,0.10)" stroke="#ad1f15" stroke-width="1.2"></rect><line x1="828.5441176470588" x2="928.5147058823529" y1="470" y2="470" stroke="#ad1f15" stroke-width="2"></line><circle cx="876.2293630533201" cy="438.3714675" r="3.2" fill="none" stroke="rgba(176,0,32,0.95)" stroke-width="1.5"></circle><circle cx="920.5095484411032" cy="470" r="2.2" fill="rgba(17,17,17,0.35)" stroke="none" stroke-width="0"></circle><circle cx="910.0492783180848" cy="470" r="2.2" fill="rgba(17,17,17,0.35)" stroke="none" stroke-width="0"></circle><circle cx="890.3529421850477" cy="470" r="2.2" fill="rgba(17,17,17,0.35)" stroke="none" stroke-width="0"></circle><text x="878.5294117647059" y="500" text-anchor="middle" font-size="10.5" fill="rgba(0,0,0,0.65)">n=4</text></g><text x="605" y="594" text-anchor="middle" font-size="13" font-weight="600" fill="#ad1f15">Generation</text><text transform="translate(26,305) rotate(-90)" text-anchor="middle" font-size="13" font-weight="600" fill="#ad1f15">Exclamation points per 100k words</text></svg>